<svg width="29" height="29" viewBox="0 0 29 29" fill="none" xmlns="http://www.w3.org/2000/svg">
<path d="M20.6667 22.2083V20.6667H16.0417V16.0417H20.6667V19.125H23.75V22.2083H22.2083V25.2917H19.125V28.375H16.0417V23.75H19.125V22.2083H20.6667ZM28.375 28.375H22.2083V25.2917H25.2917V22.2083H28.375V28.375ZM0.625 0.625H12.9583V12.9583H0.625V0.625ZM3.70833 3.70833V9.875H9.875V3.70833H3.70833ZM16.0417 0.625H28.375V12.9583H16.0417V0.625ZM19.125 3.70833V9.875H25.2917V3.70833H19.125ZM0.625 16.0417H12.9583V28.375H0.625V16.0417ZM3.70833 19.125V25.2917H9.875V19.125H3.70833ZM23.75 16.0417H28.375V19.125H23.75V16.0417ZM5.25 5.25H8.33333V8.33333H5.25V5.25ZM5.25 20.6667H8.33333V23.75H5.25V20.6667ZM20.6667 5.25H23.75V8.33333H20.6667V5.25Z" fill="#122E8E"/>
</svg>
