<svg width="134" height="108" viewBox="0 0 134 108" fill="none" xmlns="http://www.w3.org/2000/svg">
<path d="M100.289 0.00268687C104.589 11.0108 108.873 22.0244 113.212 33.0138C113.577 33.9406 113.492 34.5104 112.854 35.2411C109.046 39.6126 105.457 44.1643 102.393 49.2801V48.0199C102.393 40.7197 102.375 33.4194 102.413 26.1219C102.419 25.039 102.166 24.6387 101.062 24.6575C97.2512 24.722 93.4381 24.6817 89.4963 24.6817V56.4675C87.7276 55.5109 86.9217 53.442 84.8851 53.0256C84.8518 52.2221 84.808 51.255 84.7642 50.1962C82.295 50.4219 79.9548 50.8332 77.6196 50.7956C75.2098 50.758 72.7329 50.5672 70.4157 49.9276C67.6762 49.1727 66.3555 46.9184 66.3116 43.9682C66.2962 42.9847 66.2755 41.9853 66.4275 41.0206C67.1484 36.4745 69.8466 33.946 74.275 33.9487C76.9605 33.9487 79.6432 34.3626 82.3286 34.5964C82.9569 34.6501 83.585 34.728 84.3599 34.8113C84.3599 31.998 84.3832 29.3247 84.3264 26.6511C84.3213 26.361 83.8631 25.8747 83.567 25.8317C78.9455 25.1679 74.3369 24.3029 69.633 24.9423C63.3405 25.7995 55.1172 30.7327 53.5001 39.0619C52.6377 43.5034 53.1655 47.8319 54.852 51.9266C56.595 56.1667 60.2561 57.9991 64.2596 59.1167C67.8849 60.1298 71.6 60.4763 75.3436 60.0357C76.304 59.9229 76.9141 60.1647 77.4986 61.0002C78.7832 62.8407 80.1813 64.5952 81.6617 66.5513C63.9918 72.3121 46.4584 78.0271 28.8014 83.7823C25.8458 75.4583 22.9056 67.1801 19.8701 58.6304C21.0184 58.6304 21.9761 58.6304 22.934 58.6304C25.0786 58.6304 27.2284 58.5606 29.3679 58.6573C30.5498 58.711 30.8253 58.2516 30.7944 57.1123C30.7247 54.5652 30.7737 52.0126 30.7737 49.2479C31.4019 49.2479 31.94 49.2748 32.4755 49.2425C35.5059 49.0706 38.6006 49.2345 41.5513 48.6298C47.8127 47.3456 50.0424 42.0954 49.7489 36.5094C49.664 34.8919 49.2957 33.2018 48.6779 31.7186C47.1278 28.0027 44.0073 26.2455 40.372 26.1246C33.0935 25.8855 25.7996 26.0547 18.3381 26.0547V53.4501L18.0524 53.4931C16.8217 50.0431 15.5884 46.5931 14.3629 43.1432C10.0606 31.0389 5.76354 18.9291 1.45871 6.82469C1.31453 6.41627 1.09054 6.03742 0.902588 5.64514V5.37646C4.9654 5.19644 9.03076 5.04597 13.0936 4.82563C22.1177 4.33395 31.1393 3.7912 40.1661 3.29949C47.6532 2.89109 55.1401 2.5418 62.6273 2.14145C73.8759 1.53958 85.1273 0.921601 96.376 0.295558C96.9115 0.266001 97.4418 0.0994146 97.9748 0H100.292L100.289 0.00268687ZM88.0598 14.9122C88.052 19.2864 91.2574 22.68 95.4208 22.7095C99.553 22.7364 102.898 19.2972 102.91 15.0089C102.923 10.7153 99.6071 7.20891 95.5134 7.1901C91.3784 7.16861 88.0675 10.5998 88.0598 14.9122Z" fill="white"/>
<path d="M67.9564 97.4661V77.9539C68.0722 77.8921 68.1803 77.7846 68.291 77.7846C71.4656 77.7685 74.6452 77.6261 77.8095 77.79C82.171 78.0157 84.8873 80.9445 85.2606 85.6439C85.3841 87.1969 85.4151 88.7957 85.204 90.3324C84.6144 94.6396 82.0114 97.1329 77.5985 97.4257C74.4445 97.6353 71.2647 97.4661 67.9564 97.4661ZM73.7674 92.9844C74.8255 92.9844 75.8065 93.0758 76.7643 92.9629C78.2009 92.7964 79.1947 91.8559 79.3338 90.3942C79.5038 88.6423 79.4806 86.8475 79.3183 85.0929C79.1638 83.4273 78.0208 82.5109 76.4836 82.2772C75.6185 82.1456 74.72 82.253 73.7648 82.253V92.9844H73.7674Z" fill="white"/>
<path d="M104.137 83.141C102.502 83.2673 100.973 83.4258 99.4406 83.4634C99.1548 83.4715 98.7609 83.047 98.586 82.7217C97.8083 81.2898 96.1323 80.5964 94.7523 81.3301C94.3248 81.5584 93.8254 82.1414 93.8125 82.5793C93.7996 82.9986 94.2913 83.6595 94.7033 83.8261C95.7307 84.2425 96.8479 84.4118 97.9164 84.7263C99.0261 85.0541 100.149 85.3657 101.217 85.8117C103.372 86.7092 104.791 88.2569 104.86 90.8201C104.935 93.5095 103.794 95.5732 101.503 96.6747C98.107 98.3057 94.5642 98.1713 91.1296 96.7714C89.0442 95.9225 87.6203 93.1925 87.8651 91.0162C89.3866 90.898 90.916 90.7287 92.4505 90.6992C92.7363 90.6938 93.1635 91.1827 93.3026 91.5401C94.0339 93.4155 95.9262 94.4473 97.6847 93.6467C98.3309 93.351 99.1266 92.537 99.1651 91.911C99.2038 91.3009 98.4828 90.4198 97.8779 90.0383C97.1002 89.5491 96.0936 89.4712 95.2053 89.1569C93.7532 88.6437 92.2161 88.2676 90.8902 87.5017C87.5509 85.5699 87.448 80.7657 90.7898 78.8311C94.299 76.7972 98.058 76.9073 101.66 78.6807C103.308 79.4922 104.041 81.142 104.142 83.141H104.137Z" fill="white"/>
<path d="M107.028 91.0244C108.712 90.8954 110.285 90.7287 111.86 90.7018C112.125 90.6964 112.502 91.2608 112.648 91.6369C113.4 93.5446 115.625 94.5362 117.326 93.5231C117.88 93.1954 118.457 92.416 118.503 91.8035C118.542 91.2716 117.96 90.4546 117.442 90.1672C116.559 89.6702 115.506 89.5063 114.535 89.1624C113.083 88.6437 111.546 88.2756 110.218 87.5126C106.871 85.5942 106.742 80.7819 110.071 78.8447C113.573 76.8108 117.326 76.9209 120.944 78.6567C122.566 79.4358 123.41 81.2736 123.338 83.141C121.824 83.2592 120.3 83.4311 118.773 83.4553C118.467 83.4607 118.055 82.9771 117.857 82.6171C117.102 81.2494 115.274 80.5751 113.966 81.3649C113.554 81.6121 113.137 82.2195 113.112 82.6816C113.091 83.055 113.591 83.6624 113.982 83.8155C115.017 84.2158 116.127 84.4012 117.195 84.7182C118.346 85.0594 119.515 85.371 120.617 85.8441C122.661 86.7199 124.039 88.2192 124.162 90.6534C124.299 93.3351 123.22 95.463 120.946 96.597C117.442 98.3408 113.753 98.2655 110.238 96.64C108.078 95.6403 107.213 93.5177 107.025 91.0217L107.028 91.0244Z" fill="white"/>
<path d="M30.8506 41.8389V33.6602C33.1472 33.5554 35.4644 33.3617 37.5652 34.5199C38.9194 35.267 39.1307 36.7741 38.9607 38.2707C38.801 39.6895 38.0622 40.7562 36.7208 41.0276C34.8541 41.4037 32.9462 41.5622 30.8532 41.8389H30.8506Z" fill="white"/>
<path d="M118.003 45.3604C119.152 48.2943 120.158 50.8765 121.24 53.6358C117.929 54.7241 114.736 55.7718 111.222 56.9246C113.518 53.0072 115.663 49.3503 118.003 45.3604Z" fill="white"/>
<path d="M88.2685 101.199V107.349C87.8746 107.373 87.4807 107.398 86.9504 107.43V103.356L86.6697 103.316C86.3916 104.413 86.1548 105.519 85.8097 106.592C85.7042 106.922 85.2484 107.419 85.0606 107.371C84.7129 107.285 84.288 106.909 84.1696 106.554C83.8273 105.514 83.6186 104.423 83.0909 103.37V107.223C82.1666 107.586 81.6517 107.529 81.662 106.449C81.6749 104.721 81.6646 102.994 81.6646 101.196H83.9431C84.2418 102.333 84.5431 103.48 84.8442 104.625L85.1274 104.687C85.4287 103.545 85.73 102.403 86.0491 101.196H88.2659L88.2685 101.199Z" fill="white"/>
<path d="M117.399 107.349C114.844 107.943 115.038 105.073 113.477 104.144C113.428 105.235 113.382 106.255 113.333 107.352H111.976V101.194C114.466 100.718 114.224 103.526 115.764 104.38C115.81 103.322 115.854 102.292 115.9 101.199H117.401V107.349H117.399Z" fill="white"/>
<path d="M77.2524 101.124C79.1293 101.097 80.3781 102.325 80.3935 104.214C80.4116 106.159 79.2374 107.414 77.3812 107.433C75.445 107.454 74.3148 106.32 74.2994 104.348C74.2839 102.317 75.3549 101.151 77.2524 101.121V101.124ZM75.9575 104.278C76.0217 105.219 76.0888 106.232 77.3502 106.207C78.5115 106.183 78.6376 105.229 78.6761 104.308C78.7277 103.077 78.1638 102.293 77.2731 102.344C76.1015 102.411 76.0217 103.335 75.9575 104.281V104.278Z" fill="white"/>
<path d="M110.857 107.339C109.943 107.457 109.33 107.588 108.748 106.664C108.524 106.307 106.791 106.363 106.57 106.748C106.009 107.72 105.388 107.352 104.574 107.384C105.262 105.385 105.867 103.486 106.603 101.642C106.724 101.339 107.437 101.151 107.867 101.167C108.236 101.18 108.794 101.476 108.918 101.793C109.605 103.566 110.185 105.383 110.857 107.341V107.339ZM107.87 102.902L107.538 102.876L107.028 104.875L108.46 104.802C108.228 104.055 108.05 103.478 107.87 102.9V102.902Z" fill="white"/>
<path d="M91.4694 105.112C91.3997 105.864 91.3329 106.566 91.2607 107.356C90.7948 107.385 90.3829 107.412 89.837 107.45V101.127C90.8539 101.127 91.871 101.071 92.8802 101.143C93.8044 101.211 94.5125 101.635 94.5976 102.761C94.6851 103.919 94.2525 104.682 93.1453 104.924C92.6124 105.042 92.0562 105.05 91.4719 105.112H91.4694ZM91.4642 103.989C92.0408 103.736 92.4785 103.591 92.8544 103.344C92.9446 103.285 92.9034 102.726 92.7901 102.667C92.4194 102.468 91.9894 102.39 91.4642 102.232V103.989Z" fill="white"/>
<path d="M71.9127 105.007C72.3505 105.168 72.7753 105.326 73.2051 105.488C72.5976 107.043 71.5137 107.667 70.0281 107.406C68.4319 107.127 67.6183 106.087 67.608 104.311C67.5951 102.516 68.2619 101.586 69.8272 101.205C71.2769 100.853 72.4715 101.444 73.0738 102.847C72.4431 103.271 71.8663 103.464 71.3334 102.661C71.2279 102.503 70.9085 102.314 70.7979 102.371C70.3088 102.624 69.5594 102.879 69.4591 103.284C69.2223 104.227 68.9261 105.391 69.9946 106.071C70.6305 106.474 71.2356 106.232 71.6011 105.506C71.6811 105.351 71.784 105.211 71.9102 105.007H71.9127Z" fill="white"/>
<path d="M120.215 107.374V102.736C119.756 101.86 118.011 103.102 118.459 101.191H123.798C123.837 101.495 123.876 101.823 123.927 102.231C123.273 102.293 122.691 102.349 121.924 102.425V107.374H120.212H120.215Z" fill="white"/>
<path d="M100.489 107.376H95.9933V101.186C96.4568 101.164 96.8636 101.143 97.4814 101.113V105.907H100.406C100.437 106.452 100.46 106.866 100.489 107.376Z" fill="white"/>
<path d="M103.485 107.367H101.954V101.177H103.485V107.367Z" fill="white"/>
<path d="M127.208 25.5505C124.595 25.263 122.813 26.2089 121.008 28.2509C113.555 36.6875 106.101 45.0922 101.045 55.4367C100.329 56.9011 99.5539 58.336 98.6915 59.9721L98.6657 59.9667C98.6657 59.9667 96.8918 63.0594 96.0704 65.0799C93.7042 62.6832 85.9032 55.4448 85.9032 55.4448C85.6535 55.203 85.4577 55.1358 85.3058 55.1761H85.3006C85.3006 55.1761 85.2851 55.1815 85.28 55.1842C85.2441 55.1976 85.2106 55.2164 85.1796 55.2406C84.9015 55.4125 84.4638 55.7699 84.4638 55.7699C82.4737 57.1832 80.6509 58.4783 78.7534 59.827C78.9077 60.1577 78.9567 60.335 79.0596 60.472C82.623 65.1766 86.1812 69.8841 89.7805 74.562C90.0227 74.8764 90.5863 75.1208 90.9725 75.0859C93.3568 74.8737 95.7331 74.5808 98.1122 74.2985C99.039 74.1884 99.7161 73.7988 100.246 72.8639C103.758 66.6652 107.458 60.5768 110.882 54.3243C116.567 43.9394 123.367 34.522 132.098 26.7059C132.437 26.4023 132.754 26.0719 133.251 25.5908C131.063 25.5908 129.119 25.76 127.214 25.5505H127.208Z" fill="white"/>
</svg>
