<?xml version="1.0" encoding="UTF-8"?>
<svg xmlns="http://www.w3.org/2000/svg" xmlns:xlink="http://www.w3.org/1999/xlink" width="400" height="311" viewBox="0 0 400 311">
<path fill-rule="nonzero" fill="rgb(90.196078%, 0%, 0%)" fill-opacity="1" d="M 24 10 L 195 10 L 195 181 L 24 181 Z M 24 10 "/>
<path fill-rule="nonzero" fill="rgb(0%, 12.941176%, 44.313725%)" fill-opacity="1" d="M 24 181 L 195 181 L 195 255 L 110 300 L 24 255 "/>
<path fill-rule="nonzero" fill="rgb(100%, 100%, 100%)" fill-opacity="1" d="M 46.859375 234.5 L 48.96875 234.5 L 48.96875 241.140625 C 48.96875 242.015625 48.890625 242.6875 48.734375 243.15625 C 48.535156 243.761719 48.164062 244.25 47.625 244.625 C 47.082031 244.992188 46.367188 245.171875 45.484375 245.171875 C 44.453125 245.171875 43.65625 244.886719 43.09375 244.3125 C 42.539062 243.730469 42.257812 242.875 42.25 241.75 L 44.25 241.53125 C 44.269531 242.125 44.359375 242.546875 44.515625 242.796875 C 44.742188 243.171875 45.09375 243.359375 45.5625 243.359375 C 46.03125 243.359375 46.363281 243.230469 46.5625 242.96875 C 46.757812 242.699219 46.859375 242.136719 46.859375 241.28125 Z M 52.5625 239.71875 L 50.734375 239.390625 C 50.929688 238.652344 51.28125 238.105469 51.78125 237.75 C 52.289062 237.398438 53.039062 237.21875 54.03125 237.21875 C 54.925781 237.21875 55.59375 237.328125 56.03125 237.546875 C 56.46875 237.757812 56.773438 238.027344 56.953125 238.359375 C 57.140625 238.683594 57.234375 239.28125 57.234375 240.15625 L 57.203125 242.5 C 57.203125 243.167969 57.234375 243.664062 57.296875 243.984375 C 57.367188 244.296875 57.492188 244.636719 57.671875 245 L 55.671875 245 C 55.617188 244.867188 55.554688 244.667969 55.484375 244.40625 C 55.453125 244.28125 55.425781 244.203125 55.40625 244.171875 C 55.0625 244.507812 54.691406 244.757812 54.296875 244.921875 C 53.910156 245.085938 53.492188 245.171875 53.046875 245.171875 C 52.265625 245.171875 51.644531 244.960938 51.1875 244.53125 C 50.738281 244.105469 50.515625 243.570312 50.515625 242.921875 C 50.515625 242.496094 50.617188 242.117188 50.828125 241.78125 C 51.035156 241.4375 51.320312 241.179688 51.6875 241 C 52.0625 240.824219 52.597656 240.667969 53.296875 240.53125 C 54.234375 240.355469 54.882812 240.1875 55.25 240.03125 L 55.25 239.828125 C 55.25 239.445312 55.148438 239.171875 54.953125 239.015625 C 54.765625 238.851562 54.410156 238.765625 53.890625 238.765625 C 53.523438 238.765625 53.242188 238.839844 53.046875 238.984375 C 52.847656 239.121094 52.6875 239.367188 52.5625 239.71875 Z M 55.25 241.34375 C 54.988281 241.429688 54.578125 241.53125 54.015625 241.65625 C 53.460938 241.773438 53.101562 241.886719 52.9375 242 C 52.664062 242.1875 52.53125 242.429688 52.53125 242.71875 C 52.53125 243 52.632812 243.246094 52.84375 243.453125 C 53.0625 243.652344 53.332031 243.75 53.65625 243.75 C 54.019531 243.75 54.363281 243.632812 54.6875 243.390625 C 54.9375 243.214844 55.097656 242.996094 55.171875 242.734375 C 55.222656 242.558594 55.25 242.230469 55.25 241.75 Z M 65.96875 245 L 63.953125 245 L 63.953125 241.109375 C 63.953125 240.296875 63.910156 239.773438 63.828125 239.53125 C 63.742188 239.28125 63.601562 239.09375 63.40625 238.96875 C 63.21875 238.835938 62.988281 238.765625 62.71875 238.765625 C 62.363281 238.765625 62.046875 238.859375 61.765625 239.046875 C 61.492188 239.234375 61.304688 239.492188 61.203125 239.8125 C 61.097656 240.125 61.046875 240.703125 61.046875 241.546875 L 61.046875 245 L 59.03125 245 L 59.03125 237.390625 L 60.90625 237.390625 L 60.90625 238.515625 C 61.570312 237.652344 62.410156 237.21875 63.421875 237.21875 C 63.859375 237.21875 64.257812 237.304688 64.625 237.46875 C 65 237.625 65.28125 237.828125 65.46875 238.078125 C 65.65625 238.320312 65.785156 238.601562 65.859375 238.921875 C 65.929688 239.234375 65.96875 239.683594 65.96875 240.265625 Z M 66.984375 245.171875 L 69.578125 234.3125 L 71.09375 234.3125 L 68.46875 245.171875 Z M 78.421875 243.125 L 78.421875 245 L 71.359375 245 C 71.441406 244.292969 71.671875 243.625 72.046875 243 C 72.429688 242.367188 73.1875 241.523438 74.3125 240.46875 C 75.21875 239.625 75.773438 239.054688 75.984375 238.75 C 76.265625 238.335938 76.40625 237.921875 76.40625 237.515625 C 76.40625 237.070312 76.28125 236.726562 76.03125 236.484375 C 75.789062 236.246094 75.460938 236.125 75.046875 236.125 C 74.617188 236.125 74.28125 236.257812 74.03125 236.515625 C 73.789062 236.765625 73.648438 237.183594 73.609375 237.765625 L 71.609375 237.5625 C 71.722656 236.460938 72.09375 235.667969 72.71875 235.1875 C 73.351562 234.699219 74.144531 234.453125 75.09375 234.453125 C 76.125 234.453125 76.9375 234.734375 77.53125 235.296875 C 78.125 235.851562 78.421875 236.542969 78.421875 237.375 C 78.421875 237.855469 78.332031 238.308594 78.15625 238.734375 C 77.988281 239.164062 77.722656 239.609375 77.359375 240.078125 C 77.117188 240.382812 76.679688 240.824219 76.046875 241.40625 C 75.410156 241.992188 75.003906 242.382812 74.828125 242.578125 C 74.660156 242.765625 74.523438 242.949219 74.421875 243.125 Z M 83.03125 234.453125 C 84.039062 234.453125 84.832031 234.820312 85.40625 235.546875 C 86.09375 236.402344 86.4375 237.828125 86.4375 239.828125 C 86.4375 241.808594 86.09375 243.234375 85.40625 244.109375 C 84.832031 244.820312 84.039062 245.171875 83.03125 245.171875 C 82.007812 245.171875 81.179688 244.78125 80.546875 244 C 79.921875 243.21875 79.609375 241.820312 79.609375 239.796875 C 79.609375 237.820312 79.953125 236.398438 80.640625 235.53125 C 81.210938 234.8125 82.007812 234.453125 83.03125 234.453125 Z M 83.03125 236.125 C 82.78125 236.125 82.5625 236.203125 82.375 236.359375 C 82.1875 236.515625 82.039062 236.792969 81.9375 237.1875 C 81.789062 237.710938 81.71875 238.589844 81.71875 239.828125 C 81.71875 241.058594 81.78125 241.902344 81.90625 242.359375 C 82.03125 242.820312 82.1875 243.125 82.375 243.28125 C 82.5625 243.4375 82.78125 243.515625 83.03125 243.515625 C 83.269531 243.515625 83.484375 243.4375 83.671875 243.28125 C 83.867188 243.125 84.019531 242.84375 84.125 242.4375 C 84.257812 241.929688 84.328125 241.058594 84.328125 239.828125 C 84.328125 238.589844 84.265625 237.742188 84.140625 237.28125 C 84.015625 236.824219 83.859375 236.515625 83.671875 236.359375 C 83.484375 236.203125 83.269531 236.125 83.03125 236.125 Z M 94.421875 243.125 L 94.421875 245 L 87.359375 245 C 87.441406 244.292969 87.671875 243.625 88.046875 243 C 88.429688 242.367188 89.1875 241.523438 90.3125 240.46875 C 91.21875 239.625 91.773438 239.054688 91.984375 238.75 C 92.265625 238.335938 92.40625 237.921875 92.40625 237.515625 C 92.40625 237.070312 92.28125 236.726562 92.03125 236.484375 C 91.789062 236.246094 91.460938 236.125 91.046875 236.125 C 90.617188 236.125 90.28125 236.257812 90.03125 236.515625 C 89.789062 236.765625 89.648438 237.183594 89.609375 237.765625 L 87.609375 237.5625 C 87.722656 236.460938 88.09375 235.667969 88.71875 235.1875 C 89.351562 234.699219 90.144531 234.453125 91.09375 234.453125 C 92.125 234.453125 92.9375 234.734375 93.53125 235.296875 C 94.125 235.851562 94.421875 236.542969 94.421875 237.375 C 94.421875 237.855469 94.332031 238.308594 94.15625 238.734375 C 93.988281 239.164062 93.722656 239.609375 93.359375 240.078125 C 93.117188 240.382812 92.679688 240.824219 92.046875 241.40625 C 91.410156 241.992188 91.003906 242.382812 90.828125 242.578125 C 90.660156 242.765625 90.523438 242.949219 90.421875 243.125 Z M 95.546875 242.21875 L 97.5 241.984375 C 97.5625 242.476562 97.726562 242.855469 98 243.125 C 98.269531 243.386719 98.597656 243.515625 98.984375 243.515625 C 99.398438 243.515625 99.75 243.359375 100.03125 243.046875 C 100.320312 242.726562 100.46875 242.296875 100.46875 241.765625 C 100.46875 241.257812 100.332031 240.855469 100.0625 240.5625 C 99.789062 240.261719 99.457031 240.109375 99.0625 240.109375 C 98.800781 240.109375 98.492188 240.164062 98.140625 240.265625 L 98.359375 238.625 C 98.898438 238.636719 99.3125 238.515625 99.59375 238.265625 C 99.882812 238.015625 100.03125 237.683594 100.03125 237.265625 C 100.03125 236.914062 99.925781 236.632812 99.71875 236.421875 C 99.507812 236.214844 99.234375 236.109375 98.890625 236.109375 C 98.535156 236.109375 98.238281 236.230469 98 236.46875 C 97.757812 236.710938 97.613281 237.058594 97.5625 237.515625 L 95.703125 237.203125 C 95.828125 236.570312 96.019531 236.0625 96.28125 235.6875 C 96.539062 235.304688 96.90625 235 97.375 234.78125 C 97.84375 234.5625 98.363281 234.453125 98.9375 234.453125 C 99.925781 234.453125 100.71875 234.773438 101.3125 235.40625 C 101.8125 235.917969 102.0625 236.496094 102.0625 237.140625 C 102.0625 238.070312 101.554688 238.808594 100.546875 239.359375 C 101.148438 239.484375 101.628906 239.773438 101.984375 240.21875 C 102.347656 240.667969 102.53125 241.210938 102.53125 241.84375 C 102.53125 242.773438 102.191406 243.558594 101.515625 244.203125 C 100.847656 244.851562 100.007812 245.171875 99 245.171875 C 98.050781 245.171875 97.265625 244.902344 96.640625 244.359375 C 96.015625 243.808594 95.648438 243.09375 95.546875 242.21875 Z M 107.828125 242.203125 L 107.828125 240.1875 L 111.78125 240.1875 L 111.78125 242.203125 Z M 120.859375 234.5 L 122.96875 234.5 L 122.96875 241.140625 C 122.96875 242.015625 122.890625 242.6875 122.734375 243.15625 C 122.535156 243.761719 122.164062 244.25 121.625 244.625 C 121.082031 244.992188 120.367188 245.171875 119.484375 245.171875 C 118.453125 245.171875 117.65625 244.886719 117.09375 244.3125 C 116.539062 243.730469 116.257812 242.875 116.25 241.75 L 118.25 241.53125 C 118.269531 242.125 118.359375 242.546875 118.515625 242.796875 C 118.742188 243.171875 119.09375 243.359375 119.5625 243.359375 C 120.03125 243.359375 120.363281 243.230469 120.5625 242.96875 C 120.757812 242.699219 120.859375 242.136719 120.859375 241.28125 Z M 126.5625 239.71875 L 124.734375 239.390625 C 124.929688 238.652344 125.28125 238.105469 125.78125 237.75 C 126.289062 237.398438 127.039062 237.21875 128.03125 237.21875 C 128.925781 237.21875 129.59375 237.328125 130.03125 237.546875 C 130.46875 237.757812 130.773438 238.027344 130.953125 238.359375 C 131.140625 238.683594 131.234375 239.28125 131.234375 240.15625 L 131.203125 242.5 C 131.203125 243.167969 131.234375 243.664062 131.296875 243.984375 C 131.367188 244.296875 131.492188 244.636719 131.671875 245 L 129.671875 245 C 129.617188 244.867188 129.554688 244.667969 129.484375 244.40625 C 129.453125 244.28125 129.425781 244.203125 129.40625 244.171875 C 129.0625 244.507812 128.691406 244.757812 128.296875 244.921875 C 127.910156 245.085938 127.492188 245.171875 127.046875 245.171875 C 126.265625 245.171875 125.644531 244.960938 125.1875 244.53125 C 124.738281 244.105469 124.515625 243.570312 124.515625 242.921875 C 124.515625 242.496094 124.617188 242.117188 124.828125 241.78125 C 125.035156 241.4375 125.320312 241.179688 125.6875 241 C 126.0625 240.824219 126.597656 240.667969 127.296875 240.53125 C 128.234375 240.355469 128.882812 240.1875 129.25 240.03125 L 129.25 239.828125 C 129.25 239.445312 129.148438 239.171875 128.953125 239.015625 C 128.765625 238.851562 128.410156 238.765625 127.890625 238.765625 C 127.523438 238.765625 127.242188 238.839844 127.046875 238.984375 C 126.847656 239.121094 126.6875 239.367188 126.5625 239.71875 Z M 129.25 241.34375 C 128.988281 241.429688 128.578125 241.53125 128.015625 241.65625 C 127.460938 241.773438 127.101562 241.886719 126.9375 242 C 126.664062 242.1875 126.53125 242.429688 126.53125 242.71875 C 126.53125 243 126.632812 243.246094 126.84375 243.453125 C 127.0625 243.652344 127.332031 243.75 127.65625 243.75 C 128.019531 243.75 128.363281 243.632812 128.6875 243.390625 C 128.9375 243.214844 129.097656 242.996094 129.171875 242.734375 C 129.222656 242.558594 129.25 242.230469 129.25 241.75 Z M 139.96875 245 L 137.953125 245 L 137.953125 241.109375 C 137.953125 240.296875 137.910156 239.773438 137.828125 239.53125 C 137.742188 239.28125 137.601562 239.09375 137.40625 238.96875 C 137.21875 238.835938 136.988281 238.765625 136.71875 238.765625 C 136.363281 238.765625 136.046875 238.859375 135.765625 239.046875 C 135.492188 239.234375 135.304688 239.492188 135.203125 239.8125 C 135.097656 240.125 135.046875 240.703125 135.046875 241.546875 L 135.046875 245 L 133.03125 245 L 133.03125 237.390625 L 134.90625 237.390625 L 134.90625 238.515625 C 135.570312 237.652344 136.410156 237.21875 137.421875 237.21875 C 137.859375 237.21875 138.257812 237.304688 138.625 237.46875 C 139 237.625 139.28125 237.828125 139.46875 238.078125 C 139.65625 238.320312 139.785156 238.601562 139.859375 238.921875 C 139.929688 239.234375 139.96875 239.683594 139.96875 240.265625 Z M 140.984375 245.171875 L 143.578125 234.3125 L 145.09375 234.3125 L 142.46875 245.171875 Z M 152.421875 243.125 L 152.421875 245 L 145.359375 245 C 145.441406 244.292969 145.671875 243.625 146.046875 243 C 146.429688 242.367188 147.1875 241.523438 148.3125 240.46875 C 149.21875 239.625 149.773438 239.054688 149.984375 238.75 C 150.265625 238.335938 150.40625 237.921875 150.40625 237.515625 C 150.40625 237.070312 150.28125 236.726562 150.03125 236.484375 C 149.789062 236.246094 149.460938 236.125 149.046875 236.125 C 148.617188 236.125 148.28125 236.257812 148.03125 236.515625 C 147.789062 236.765625 147.648438 237.183594 147.609375 237.765625 L 145.609375 237.5625 C 145.722656 236.460938 146.09375 235.667969 146.71875 235.1875 C 147.351562 234.699219 148.144531 234.453125 149.09375 234.453125 C 150.125 234.453125 150.9375 234.734375 151.53125 235.296875 C 152.125 235.851562 152.421875 236.542969 152.421875 237.375 C 152.421875 237.855469 152.332031 238.308594 152.15625 238.734375 C 151.988281 239.164062 151.722656 239.609375 151.359375 240.078125 C 151.117188 240.382812 150.679688 240.824219 150.046875 241.40625 C 149.410156 241.992188 149.003906 242.382812 148.828125 242.578125 C 148.660156 242.765625 148.523438 242.949219 148.421875 243.125 Z M 157.03125 234.453125 C 158.039062 234.453125 158.832031 234.820312 159.40625 235.546875 C 160.09375 236.402344 160.4375 237.828125 160.4375 239.828125 C 160.4375 241.808594 160.09375 243.234375 159.40625 244.109375 C 158.832031 244.820312 158.039062 245.171875 157.03125 245.171875 C 156.007812 245.171875 155.179688 244.78125 154.546875 244 C 153.921875 243.21875 153.609375 241.820312 153.609375 239.796875 C 153.609375 237.820312 153.953125 236.398438 154.640625 235.53125 C 155.210938 234.8125 156.007812 234.453125 157.03125 234.453125 Z M 157.03125 236.125 C 156.78125 236.125 156.5625 236.203125 156.375 236.359375 C 156.1875 236.515625 156.039062 236.792969 155.9375 237.1875 C 155.789062 237.710938 155.71875 238.589844 155.71875 239.828125 C 155.71875 241.058594 155.78125 241.902344 155.90625 242.359375 C 156.03125 242.820312 156.1875 243.125 156.375 243.28125 C 156.5625 243.4375 156.78125 243.515625 157.03125 243.515625 C 157.269531 243.515625 157.484375 243.4375 157.671875 243.28125 C 157.867188 243.125 158.019531 242.84375 158.125 242.4375 C 158.257812 241.929688 158.328125 241.058594 158.328125 239.828125 C 158.328125 238.589844 158.265625 237.742188 158.140625 237.28125 C 158.015625 236.824219 157.859375 236.515625 157.671875 236.359375 C 157.484375 236.203125 157.269531 236.125 157.03125 236.125 Z M 168.421875 243.125 L 168.421875 245 L 161.359375 245 C 161.441406 244.292969 161.671875 243.625 162.046875 243 C 162.429688 242.367188 163.1875 241.523438 164.3125 240.46875 C 165.21875 239.625 165.773438 239.054688 165.984375 238.75 C 166.265625 238.335938 166.40625 237.921875 166.40625 237.515625 C 166.40625 237.070312 166.28125 236.726562 166.03125 236.484375 C 165.789062 236.246094 165.460938 236.125 165.046875 236.125 C 164.617188 236.125 164.28125 236.257812 164.03125 236.515625 C 163.789062 236.765625 163.648438 237.183594 163.609375 237.765625 L 161.609375 237.5625 C 161.722656 236.460938 162.09375 235.667969 162.71875 235.1875 C 163.351562 234.699219 164.144531 234.453125 165.09375 234.453125 C 166.125 234.453125 166.9375 234.734375 167.53125 235.296875 C 168.125 235.851562 168.421875 236.542969 168.421875 237.375 C 168.421875 237.855469 168.332031 238.308594 168.15625 238.734375 C 167.988281 239.164062 167.722656 239.609375 167.359375 240.078125 C 167.117188 240.382812 166.679688 240.824219 166.046875 241.40625 C 165.410156 241.992188 165.003906 242.382812 164.828125 242.578125 C 164.660156 242.765625 164.523438 242.949219 164.421875 243.125 Z M 173.578125 245 L 173.578125 242.890625 L 169.265625 242.890625 L 169.265625 241.125 L 173.828125 234.453125 L 175.515625 234.453125 L 175.515625 241.109375 L 176.828125 241.109375 L 176.828125 242.890625 L 175.515625 242.890625 L 175.515625 245 Z M 173.578125 241.109375 L 173.578125 237.53125 L 171.15625 241.109375 Z M 42 231.722656 "/>
<path fill-rule="nonzero" fill="rgb(100%, 100%, 100%)" fill-opacity="1" d="M 67.34375 36.828125 L 67.34375 39.15625 C 67.34375 43.460938 65.960938 46.945312 63.203125 49.609375 C 60.453125 52.277344 56.898438 53.609375 52.546875 53.609375 C 47.898438 53.609375 44.050781 52.101562 41 49.078125 C 37.945312 46.046875 36.421875 42.355469 36.421875 38 C 36.421875 33.605469 37.929688 29.890625 40.953125 26.859375 C 43.972656 23.820312 47.722656 22.296875 52.203125 22.296875 C 55.003906 22.296875 57.566406 22.9375 59.890625 24.21875 C 62.210938 25.492188 64.019531 27.1875 65.3125 29.3125 L 60.234375 32.234375 C 59.523438 30.996094 58.445312 29.992188 57 29.21875 C 55.550781 28.449219 53.9375 28.0625 52.15625 28.0625 C 49.289062 28.0625 46.929688 29 45.078125 30.875 C 43.234375 32.75 42.3125 35.125 42.3125 38 C 42.3125 40.835938 43.25 43.179688 45.125 45.03125 C 47 46.875 49.488281 47.796875 52.59375 47.796875 C 54.882812 47.796875 56.78125 47.292969 58.28125 46.28125 C 59.789062 45.261719 60.816406 43.859375 61.359375 42.078125 L 52.25 42.078125 L 52.25 36.828125 Z M 35 19.761719 "/>
<path fill-rule="nonzero" fill="rgb(100%, 100%, 100%)" fill-opacity="1" d="M 76.078125 34.800781 C 76.597656 33.425781 77.453125 32.394531 78.640625 31.707031 C 79.828125 31.011719 81.15625 30.660156 82.625 30.660156 L 82.625 36.863281 C 80.925781 36.667969 79.410156 37.011719 78.078125 37.894531 C 76.742188 38.78125 76.078125 40.253906 76.078125 42.316406 L 76.078125 52.597656 L 70.53125 52.597656 L 70.53125 31.097656 L 76.078125 31.097656 Z M 68 19.359375 "/>
<path fill-rule="nonzero" fill="rgb(100%, 100%, 100%)" fill-opacity="1" d="M 90.820312 44.128906 C 91.570312 46.828125 93.589844 48.175781 96.882812 48.175781 C 99.007812 48.175781 100.617188 47.457031 101.710938 46.019531 L 106.179688 48.597656 C 104.054688 51.671875 100.929688 53.207031 96.804688 53.207031 C 93.25 53.207031 90.398438 52.136719 88.242188 49.988281 C 86.09375 47.832031 85.023438 45.121094 85.023438 41.847656 C 85.023438 38.609375 86.078125 35.90625 88.195312 33.738281 C 90.320312 31.574219 93.042969 30.488281 96.367188 30.488281 C 99.523438 30.488281 102.125 31.582031 104.179688 33.769531 C 106.230469 35.949219 107.257812 38.640625 107.257812 41.847656 C 107.257812 42.566406 107.183594 43.328125 107.039062 44.128906 Z M 90.742188 39.832031 L 101.710938 39.832031 C 101.386719 38.363281 100.730469 37.277344 99.742188 36.566406 C 98.75 35.847656 97.625 35.488281 96.367188 35.488281 C 94.875 35.488281 93.640625 35.871094 92.664062 36.628906 C 91.695312 37.390625 91.054688 38.457031 90.742188 39.832031 Z M 83.601562 19.359375 "/>
<path fill-rule="nonzero" fill="rgb(100%, 100%, 100%)" fill-opacity="1" d="M 126.976562 31.097656 L 132.523438 31.097656 L 132.523438 52.597656 L 126.976562 52.597656 L 126.976562 50.066406 C 125.320312 52.160156 122.984375 53.207031 119.976562 53.207031 C 117.101562 53.207031 114.636719 52.109375 112.585938 49.910156 C 110.542969 47.714844 109.523438 45.027344 109.523438 41.847656 C 109.523438 38.671875 110.542969 35.984375 112.585938 33.785156 C 114.636719 31.589844 117.101562 30.488281 119.976562 30.488281 C 122.984375 30.488281 125.320312 31.535156 126.976562 33.628906 Z M 116.742188 46.222656 C 117.855469 47.347656 119.273438 47.910156 120.992188 47.910156 C 122.71875 47.910156 124.148438 47.347656 125.273438 46.222656 C 126.40625 45.089844 126.976562 43.628906 126.976562 41.847656 C 126.976562 40.066406 126.40625 38.613281 125.273438 37.488281 C 124.148438 36.355469 122.71875 35.785156 120.992188 35.785156 C 119.273438 35.785156 117.855469 36.355469 116.742188 37.488281 C 115.625 38.613281 115.070312 40.066406 115.070312 41.847656 C 115.070312 43.628906 115.625 45.089844 116.742188 46.222656 Z M 108.101562 19.359375 "/>
<path fill-rule="nonzero" fill="rgb(100%, 100%, 100%)" fill-opacity="1" d="M 150.828125 36.425781 L 145.96875 36.425781 L 145.96875 45.378906 C 145.96875 46.121094 146.15625 46.660156 146.53125 47.003906 C 146.90625 47.347656 147.453125 47.546875 148.171875 47.597656 C 148.890625 47.640625 149.773438 47.628906 150.828125 47.566406 L 150.828125 52.597656 C 147.015625 53.023438 144.328125 52.664062 142.765625 51.519531 C 141.203125 50.375 140.421875 48.328125 140.421875 45.378906 L 140.421875 36.425781 L 136.6875 36.425781 L 136.6875 31.097656 L 140.421875 31.097656 L 140.421875 26.753906 L 145.96875 25.082031 L 145.96875 31.097656 L 150.828125 31.097656 Z M 136 19.359375 "/>
<path fill-rule="nonzero" fill="rgb(100%, 100%, 100%)" fill-opacity="1" d="M 51.515625 60.40625 C 54.410156 60.40625 56.847656 61.382812 58.828125 63.328125 C 60.804688 65.277344 61.796875 67.671875 61.796875 70.515625 C 61.796875 73.351562 60.804688 75.742188 58.828125 77.6875 C 56.847656 79.636719 54.410156 80.609375 51.515625 80.609375 L 46.234375 80.609375 L 46.234375 90.5 L 40.296875 90.5 L 40.296875 60.40625 Z M 51.515625 75.0625 C 52.773438 75.0625 53.820312 74.625 54.65625 73.75 C 55.488281 72.875 55.90625 71.792969 55.90625 70.5 C 55.90625 69.1875 55.488281 68.105469 54.65625 67.25 C 53.820312 66.386719 52.773438 65.953125 51.515625 65.953125 L 46.234375 65.953125 L 46.234375 75.0625 Z M 37.5 57.261719 "/>
<path fill-rule="nonzero" fill="rgb(100%, 100%, 100%)" fill-opacity="1" d="M 66.03125 91 L 66.03125 59.609375 L 71.578125 59.609375 L 71.578125 91 Z M 63.5 57.761719 "/>
<path fill-rule="nonzero" fill="rgb(100%, 100%, 100%)" fill-opacity="1" d="M 93.175781 69 L 98.722656 69 L 98.722656 90.5 L 93.175781 90.5 L 93.175781 87.96875 C 91.519531 90.0625 89.183594 91.109375 86.175781 91.109375 C 83.300781 91.109375 80.835938 90.011719 78.785156 87.8125 C 76.742188 85.617188 75.722656 82.929688 75.722656 79.75 C 75.722656 76.574219 76.742188 73.886719 78.785156 71.6875 C 80.835938 69.492188 83.300781 68.390625 86.175781 68.390625 C 89.183594 68.390625 91.519531 69.4375 93.175781 71.53125 Z M 82.941406 84.125 C 84.054688 85.25 85.472656 85.8125 87.191406 85.8125 C 88.917969 85.8125 90.347656 85.25 91.472656 84.125 C 92.605469 82.992188 93.175781 81.53125 93.175781 79.75 C 93.175781 77.96875 92.605469 76.515625 91.472656 75.390625 C 90.347656 74.257812 88.917969 73.6875 87.191406 73.6875 C 85.472656 73.6875 84.054688 74.257812 82.941406 75.390625 C 81.824219 76.515625 81.269531 77.96875 81.269531 79.75 C 81.269531 81.53125 81.824219 82.992188 82.941406 84.125 Z M 74.300781 57.261719 "/>
<path fill-rule="nonzero" fill="rgb(100%, 100%, 100%)" fill-opacity="1" d="M 114.765625 91.109375 C 111.523438 91.109375 108.820312 90.023438 106.65625 87.84375 C 104.5 85.65625 103.421875 82.960938 103.421875 79.75 C 103.421875 76.542969 104.5 73.851562 106.65625 71.671875 C 108.820312 69.484375 111.523438 68.390625 114.765625 68.390625 C 116.859375 68.390625 118.765625 68.898438 120.484375 69.90625 C 122.203125 70.90625 123.507812 72.25 124.40625 73.9375 L 119.625 76.734375 C 119.195312 75.851562 118.546875 75.152344 117.671875 74.640625 C 116.796875 74.121094 115.816406 73.859375 114.734375 73.859375 C 113.066406 73.859375 111.6875 74.414062 110.59375 75.515625 C 109.507812 76.621094 108.96875 78.03125 108.96875 79.75 C 108.96875 81.4375 109.507812 82.835938 110.59375 83.9375 C 111.6875 85.042969 113.066406 85.59375 114.734375 85.59375 C 115.847656 85.59375 116.84375 85.34375 117.71875 84.84375 C 118.59375 84.34375 119.242188 83.652344 119.671875 82.765625 L 124.484375 85.515625 C 123.535156 87.203125 122.203125 88.558594 120.484375 89.578125 C 118.765625 90.597656 116.859375 91.109375 114.765625 91.109375 Z M 102 57.261719 "/>
<path fill-rule="nonzero" fill="rgb(100%, 100%, 100%)" fill-opacity="1" d="M 133.21875 82.03125 C 133.96875 84.730469 135.988281 86.078125 139.28125 86.078125 C 141.40625 86.078125 143.015625 85.359375 144.109375 83.921875 L 148.578125 86.5 C 146.453125 89.574219 143.328125 91.109375 139.203125 91.109375 C 135.648438 91.109375 132.796875 90.039062 130.640625 87.890625 C 128.492188 85.734375 127.421875 83.023438 127.421875 79.75 C 127.421875 76.511719 128.476562 73.808594 130.59375 71.640625 C 132.71875 69.476562 135.441406 68.390625 138.765625 68.390625 C 141.921875 68.390625 144.523438 69.484375 146.578125 71.671875 C 148.628906 73.851562 149.65625 76.542969 149.65625 79.75 C 149.65625 80.46875 149.582031 81.230469 149.4375 82.03125 Z M 133.140625 77.734375 L 144.109375 77.734375 C 143.785156 76.265625 143.128906 75.179688 142.140625 74.46875 C 141.148438 73.75 140.023438 73.390625 138.765625 73.390625 C 137.273438 73.390625 136.039062 73.773438 135.0625 74.53125 C 134.09375 75.292969 133.453125 76.359375 133.140625 77.734375 Z M 126 57.261719 "/>
<path fill-rule="nonzero" fill="rgb(100%, 100%, 100%)" fill-opacity="1" d="M 58.703125 98.90625 L 58.703125 104.578125 L 50.578125 104.578125 L 50.578125 129 L 44.640625 129 L 44.640625 104.578125 L 36.5625 104.578125 L 36.5625 98.90625 Z M 36 95.761719 "/>
<path fill-rule="nonzero" fill="rgb(100%, 100%, 100%)" fill-opacity="1" d="M 75.859375 125.613281 C 73.648438 127.8125 70.953125 128.910156 67.765625 128.910156 C 64.585938 128.910156 61.898438 127.8125 59.703125 125.613281 C 57.515625 123.417969 56.421875 120.730469 56.421875 117.550781 C 56.421875 114.375 57.515625 111.6875 59.703125 109.488281 C 61.898438 107.292969 64.585938 106.191406 67.765625 106.191406 C 70.953125 106.191406 73.648438 107.292969 75.859375 109.488281 C 78.066406 111.6875 79.171875 114.375 79.171875 117.550781 C 79.171875 120.730469 78.066406 123.417969 75.859375 125.613281 Z M 63.625 121.816406 C 64.726562 122.933594 66.109375 123.488281 67.765625 123.488281 C 69.429688 123.488281 70.820312 122.933594 71.9375 121.816406 C 73.0625 120.691406 73.625 119.269531 73.625 117.550781 C 73.625 115.832031 73.0625 114.417969 71.9375 113.300781 C 70.820312 112.175781 69.429688 111.613281 67.765625 111.613281 C 66.109375 111.613281 64.726562 112.175781 63.625 113.300781 C 62.519531 114.417969 61.96875 115.832031 61.96875 117.550781 C 61.96875 119.269531 62.519531 120.691406 63.625 121.816406 Z M 55 95.0625 "/>
<path fill-rule="nonzero" fill="rgb(100%, 100%, 100%)" fill-opacity="1" d="M 45.578125 167.300781 L 37.140625 137.207031 L 43.375 137.207031 L 49.140625 159.519531 L 55.421875 137.207031 L 60.5 137.207031 L 66.8125 159.519531 L 72.578125 137.207031 L 78.8125 137.207031 L 70.390625 167.300781 L 63.640625 167.300781 L 57.953125 147.441406 L 52.328125 167.300781 Z M 36.5 134.0625 "/>
<path fill-rule="nonzero" fill="rgb(100%, 100%, 100%)" fill-opacity="1" d="M 97.660156 164.210938 C 95.449219 166.410156 92.753906 167.507812 89.566406 167.507812 C 86.386719 167.507812 83.699219 166.410156 81.503906 164.210938 C 79.316406 162.015625 78.222656 159.328125 78.222656 156.148438 C 78.222656 152.972656 79.316406 150.285156 81.503906 148.085938 C 83.699219 145.890625 86.386719 144.789062 89.566406 144.789062 C 92.753906 144.789062 95.449219 145.890625 97.660156 148.085938 C 99.867188 150.285156 100.972656 152.972656 100.972656 156.148438 C 100.972656 159.328125 99.867188 162.015625 97.660156 164.210938 Z M 85.425781 160.414062 C 86.527344 161.53125 87.910156 162.085938 89.566406 162.085938 C 91.230469 162.085938 92.621094 161.53125 93.738281 160.414062 C 94.863281 159.289062 95.425781 157.867188 95.425781 156.148438 C 95.425781 154.429688 94.863281 153.015625 93.738281 151.898438 C 92.621094 150.773438 91.230469 150.210938 89.566406 150.210938 C 87.910156 150.210938 86.527344 150.773438 85.425781 151.898438 C 84.320312 153.015625 83.769531 154.429688 83.769531 156.148438 C 83.769531 157.867188 84.320312 159.289062 85.425781 160.414062 Z M 76.800781 133.660156 "/>
<path fill-rule="nonzero" fill="rgb(100%, 100%, 100%)" fill-opacity="1" d="M 110.378906 149.503906 C 110.898438 148.128906 111.753906 147.097656 112.941406 146.410156 C 114.128906 145.714844 115.457031 145.363281 116.925781 145.363281 L 116.925781 151.566406 C 115.226562 151.371094 113.710938 151.714844 112.378906 152.597656 C 111.042969 153.484375 110.378906 154.957031 110.378906 157.019531 L 110.378906 167.300781 L 104.832031 167.300781 L 104.832031 145.800781 L 110.378906 145.800781 Z M 102.300781 134.0625 "/>
<path fill-rule="nonzero" fill="rgb(100%, 100%, 100%)" fill-opacity="1" d="M 140.660156 167.199219 L 134.207031 167.199219 L 126.378906 157.433594 L 126.378906 167.199219 L 120.832031 167.199219 L 120.832031 137.105469 L 126.378906 137.105469 L 126.378906 155.152344 L 133.785156 145.699219 L 140.410156 145.699219 L 131.753906 156.324219 Z M 118.300781 133.960938 "/>
<path fill-rule="nonzero" fill="rgb(100%, 100%, 100%)" fill-opacity="1" d="M 148.640625 166 L 147.65625 164.296875 L 146.921875 164.296875 L 146.921875 166 L 145.953125 166 L 145.953125 161.09375 L 147.921875 161.09375 C 148.367188 161.09375 148.75 161.257812 149.0625 161.578125 C 149.382812 161.890625 149.546875 162.273438 149.546875 162.71875 C 149.546875 163.023438 149.457031 163.304688 149.28125 163.5625 C 149.113281 163.824219 148.882812 164.023438 148.59375 164.15625 L 149.6875 166 Z M 146.921875 162 L 146.921875 163.453125 L 147.921875 163.453125 C 148.097656 163.453125 148.25 163.386719 148.375 163.25 C 148.507812 163.105469 148.578125 162.933594 148.578125 162.734375 C 148.578125 162.527344 148.507812 162.355469 148.375 162.21875 C 148.25 162.074219 148.097656 162 147.921875 162 Z M 145.5 160.589844 "/>
<path fill-rule="nonzero" fill="rgb(100%, 100%, 100%)" fill-opacity="1" d="M 147.5 158.8125 C 144.953125 158.8125 142.90625 160.859375 142.90625 163.40625 C 142.90625 165.9375 144.953125 168 147.5 168 C 150.046875 168 152.09375 165.9375 152.09375 163.40625 C 152.09375 160.859375 150.046875 158.8125 147.5 158.8125 Z M 147.5 160.046875 C 149.34375 160.046875 150.859375 161.546875 150.859375 163.40625 C 150.859375 165.25 149.34375 166.765625 147.5 166.765625 C 145.65625 166.765625 144.140625 165.25 144.140625 163.40625 C 144.140625 161.546875 145.65625 160.046875 147.5 160.046875 Z M 142.5 155.601562 "/>
<path fill-rule="nonzero" fill="rgb(100%, 100%, 100%)" fill-opacity="1" d="M 44.515625 192.25 C 45.785156 192.25 46.976562 192.433594 48.09375 192.796875 C 49.21875 193.164062 50.21875 193.6875 51.09375 194.375 C 51.96875 195.0625 52.695312 195.902344 53.28125 196.890625 C 53.875 197.882812 54.265625 198.996094 54.453125 200.234375 L 49.9375 200.625 C 49.644531 199.125 49.007812 197.996094 48.03125 197.234375 C 47.050781 196.464844 45.832031 196.078125 44.375 196.078125 C 43.457031 196.078125 42.617188 196.246094 41.859375 196.578125 C 41.109375 196.902344 40.46875 197.367188 39.9375 197.96875 C 39.40625 198.5625 38.992188 199.292969 38.703125 200.15625 C 38.410156 201.011719 38.265625 201.96875 38.265625 203.03125 C 38.265625 204.167969 38.421875 205.167969 38.734375 206.03125 C 39.054688 206.886719 39.492188 207.609375 40.046875 208.203125 C 40.597656 208.789062 41.242188 209.230469 41.984375 209.53125 C 42.734375 209.824219 43.539062 209.96875 44.40625 209.96875 C 45.84375 209.96875 47.054688 209.59375 48.046875 208.84375 C 49.035156 208.085938 49.664062 206.976562 49.9375 205.515625 L 54.484375 205.90625 C 54.273438 207.148438 53.875 208.25 53.28125 209.21875 C 52.695312 210.1875 51.96875 211.015625 51.09375 211.703125 C 50.226562 212.382812 49.234375 212.902344 48.109375 213.265625 C 46.992188 213.628906 45.804688 213.8125 44.546875 213.8125 C 43.015625 213.8125 41.59375 213.566406 40.28125 213.078125 C 38.976562 212.578125 37.847656 211.867188 36.890625 210.9375 C 35.941406 210.011719 35.203125 208.882812 34.671875 207.546875 C 34.140625 206.214844 33.875 204.710938 33.875 203.03125 C 33.875 201.335938 34.140625 199.820312 34.671875 198.484375 C 35.203125 197.140625 35.941406 196.011719 36.890625 195.09375 C 37.847656 194.167969 38.972656 193.464844 40.265625 192.984375 C 41.566406 192.496094 42.984375 192.25 44.515625 192.25 Z M 32.5 192.585938 "/>
<path fill-rule="nonzero" fill="rgb(100%, 100%, 100%)" fill-opacity="1" d="M 61.078125 207.5625 C 61.109375 208.460938 61.382812 209.171875 61.90625 209.703125 C 62.4375 210.234375 63.164062 210.5 64.09375 210.5 C 64.800781 210.5 65.382812 210.359375 65.84375 210.078125 C 66.300781 209.796875 66.601562 209.40625 66.75 208.90625 L 70.875 209.109375 C 70.738281 209.796875 70.472656 210.429688 70.078125 211 C 69.691406 211.5625 69.203125 212.058594 68.609375 212.484375 C 68.023438 212.902344 67.351562 213.230469 66.59375 213.46875 C 65.84375 213.695312 65.046875 213.8125 64.203125 213.8125 C 63.109375 213.8125 62.097656 213.640625 61.171875 213.296875 C 60.242188 212.945312 59.453125 212.445312 58.796875 211.796875 C 58.148438 211.140625 57.644531 210.351562 57.28125 209.421875 C 56.914062 208.484375 56.734375 207.4375 56.734375 206.28125 C 56.734375 205.105469 56.914062 204.054688 57.28125 203.125 C 57.644531 202.199219 58.148438 201.414062 58.796875 200.765625 C 59.453125 200.109375 60.226562 199.609375 61.125 199.265625 C 62.019531 198.921875 63.007812 198.75 64.09375 198.75 C 65.132812 198.75 66.082031 198.914062 66.9375 199.234375 C 67.789062 199.558594 68.519531 200.03125 69.125 200.65625 C 69.726562 201.273438 70.191406 202.027344 70.515625 202.921875 C 70.847656 203.820312 71.015625 204.824219 71.015625 205.9375 L 71.015625 207.5625 Z M 64.0625 201.9375 C 63.1875 201.9375 62.484375 202.195312 61.953125 202.703125 C 61.421875 203.203125 61.128906 203.917969 61.078125 204.84375 L 66.890625 204.84375 C 66.859375 203.949219 66.613281 203.242188 66.15625 202.71875 C 65.695312 202.199219 65 201.9375 64.0625 201.9375 Z M 55.5 192.585938 "/>
<path fill-rule="nonzero" fill="rgb(100%, 100%, 100%)" fill-opacity="1" d="M 81.9375 202.828125 C 80.757812 202.828125 79.828125 203.136719 79.140625 203.75 C 78.453125 204.355469 78.109375 205.15625 78.109375 206.15625 L 78.109375 213.5 L 74.015625 213.5 L 74.015625 199.03125 L 77.96875 199.03125 L 77.96875 200.671875 C 78.28125 200.195312 78.738281 199.777344 79.34375 199.421875 C 79.957031 199.070312 80.820312 198.890625 81.9375 198.890625 Z M 72 192.585938 "/>
<path fill-rule="nonzero" fill="rgb(100%, 100%, 100%)" fill-opacity="1" d="M 89.699219 207.820312 C 89.699219 208.625 89.917969 209.191406 90.355469 209.523438 C 90.792969 209.847656 91.300781 210.007812 91.886719 210.007812 C 92.175781 210.007812 92.421875 210 92.621094 209.976562 C 92.816406 209.945312 92.988281 209.910156 93.136719 209.867188 L 93.136719 213.507812 C 92.84375 213.546875 92.53125 213.585938 92.199219 213.617188 C 91.875 213.65625 91.433594 213.679688 90.871094 213.679688 C 90.089844 213.679688 89.371094 213.578125 88.714844 213.382812 C 88.066406 213.1875 87.515625 212.894531 87.058594 212.507812 C 86.597656 212.113281 86.238281 211.609375 85.980469 210.992188 C 85.730469 210.378906 85.605469 209.648438 85.605469 208.804688 L 85.636719 202.445312 L 83.011719 202.445312 L 83.011719 198.929688 L 85.667969 198.929688 L 85.699219 194.132812 L 89.777344 194.132812 L 89.761719 198.929688 L 93.136719 198.929688 L 93.136719 202.445312 L 89.730469 202.445312 Z M 82.699219 192.484375 "/>
<path fill-rule="nonzero" fill="rgb(100%, 100%, 100%)" fill-opacity="1" d="M 97.761719 191.828125 C 98.449219 191.828125 99.03125 192.070312 99.511719 192.546875 C 99.988281 193.015625 100.230469 193.601562 100.230469 194.296875 C 100.230469 194.964844 99.988281 195.539062 99.511719 196.015625 C 99.03125 196.496094 98.449219 196.734375 97.761719 196.734375 C 97.074219 196.734375 96.496094 196.496094 96.027344 196.015625 C 95.558594 195.539062 95.324219 194.964844 95.324219 194.296875 C 95.324219 193.953125 95.386719 193.636719 95.511719 193.34375 C 95.644531 193.042969 95.824219 192.78125 96.042969 192.5625 C 96.269531 192.335938 96.53125 192.15625 96.824219 192.03125 C 97.113281 191.898438 97.425781 191.828125 97.761719 191.828125 Z M 95.714844 213.5 L 95.714844 199.03125 L 99.808594 199.03125 L 99.808594 213.5 Z M 93.699219 192.585938 "/>
<path fill-rule="nonzero" fill="rgb(100%, 100%, 100%)" fill-opacity="1" d="M 110.597656 191.578125 C 110.910156 191.578125 111.167969 191.585938 111.378906 191.59375 C 111.597656 191.605469 111.808594 191.625 112.019531 191.65625 L 112.019531 195.1875 C 111.894531 195.167969 111.753906 195.152344 111.597656 195.140625 C 111.449219 195.132812 111.273438 195.125 111.066406 195.125 C 110.355469 195.125 109.773438 195.339844 109.316406 195.765625 C 108.855469 196.183594 108.628906 196.734375 108.628906 197.421875 L 108.628906 199.03125 L 111.988281 199.03125 L 111.988281 202.546875 L 108.628906 202.546875 L 108.628906 213.5 L 104.566406 213.5 L 104.566406 202.546875 L 101.941406 202.546875 L 101.941406 199.03125 L 104.566406 199.03125 L 104.566406 197.546875 C 104.566406 196.632812 104.710938 195.808594 105.003906 195.078125 C 105.292969 194.351562 105.699219 193.726562 106.222656 193.203125 C 106.742188 192.683594 107.371094 192.28125 108.113281 192 C 108.851562 191.71875 109.679688 191.578125 110.597656 191.578125 Z M 101.800781 192.585938 "/>
<path fill-rule="nonzero" fill="rgb(100%, 100%, 100%)" fill-opacity="1" d="M 116.5625 191.828125 C 117.25 191.828125 117.832031 192.070312 118.3125 192.546875 C 118.789062 193.015625 119.03125 193.601562 119.03125 194.296875 C 119.03125 194.964844 118.789062 195.539062 118.3125 196.015625 C 117.832031 196.496094 117.25 196.734375 116.5625 196.734375 C 115.875 196.734375 115.296875 196.496094 114.828125 196.015625 C 114.359375 195.539062 114.125 194.964844 114.125 194.296875 C 114.125 193.953125 114.1875 193.636719 114.3125 193.34375 C 114.445312 193.042969 114.625 192.78125 114.84375 192.5625 C 115.070312 192.335938 115.332031 192.15625 115.625 192.03125 C 115.914062 191.898438 116.226562 191.828125 116.5625 191.828125 Z M 114.515625 213.5 L 114.515625 199.03125 L 118.609375 199.03125 L 118.609375 213.5 Z M 112.5 192.585938 "/>
<path fill-rule="nonzero" fill="rgb(100%, 100%, 100%)" fill-opacity="1" d="M 128.855469 198.75 C 129.730469 198.75 130.550781 198.875 131.324219 199.125 C 132.105469 199.375 132.796875 199.746094 133.402344 200.234375 C 134.003906 200.714844 134.503906 201.304688 134.902344 202 C 135.308594 202.6875 135.578125 203.46875 135.714844 204.34375 L 131.714844 204.6875 C 131.621094 203.9375 131.3125 203.34375 130.792969 202.90625 C 130.28125 202.46875 129.636719 202.25 128.855469 202.25 C 127.894531 202.25 127.109375 202.601562 126.496094 203.296875 C 125.878906 203.996094 125.574219 204.992188 125.574219 206.28125 C 125.574219 207.5625 125.878906 208.554688 126.496094 209.25 C 127.109375 209.9375 127.894531 210.28125 128.855469 210.28125 C 129.65625 210.28125 130.308594 210.074219 130.808594 209.65625 C 131.316406 209.230469 131.625 208.652344 131.730469 207.921875 L 135.714844 208.296875 C 135.558594 209.152344 135.28125 209.921875 134.886719 210.609375 C 134.5 211.289062 134.003906 211.867188 133.402344 212.34375 C 132.796875 212.8125 132.109375 213.179688 131.339844 213.4375 C 130.578125 213.6875 129.75 213.8125 128.855469 213.8125 C 127.792969 213.8125 126.808594 213.640625 125.902344 213.296875 C 124.996094 212.945312 124.207031 212.449219 123.542969 211.8125 C 122.886719 211.167969 122.371094 210.382812 121.996094 209.453125 C 121.621094 208.515625 121.433594 207.460938 121.433594 206.28125 C 121.433594 205.085938 121.621094 204.023438 121.996094 203.09375 C 122.371094 202.15625 122.878906 201.367188 123.527344 200.71875 C 124.183594 200.074219 124.96875 199.585938 125.886719 199.25 C 126.800781 198.917969 127.792969 198.75 128.855469 198.75 Z M 120.199219 192.585938 "/>
<path fill-rule="nonzero" fill="rgb(100%, 100%, 100%)" fill-opacity="1" d="M 144.070312 198.648438 C 146.027344 198.648438 147.515625 199.140625 148.539062 200.117188 C 149.570312 201.097656 150.085938 202.546875 150.085938 204.460938 L 150.085938 213.398438 L 146.148438 213.398438 L 146.148438 212.226562 C 145.730469 212.65625 145.21875 213.007812 144.617188 213.289062 C 144.011719 213.570312 143.289062 213.710938 142.445312 213.710938 C 140.984375 213.710938 139.820312 213.347656 138.945312 212.617188 C 138.070312 211.890625 137.632812 210.828125 137.632812 209.429688 C 137.632812 208.617188 137.789062 207.941406 138.101562 207.398438 C 138.421875 206.847656 138.851562 206.40625 139.382812 206.070312 C 139.914062 205.726562 140.527344 205.476562 141.226562 205.320312 C 141.921875 205.164062 142.65625 205.066406 143.429688 205.023438 L 146.007812 204.882812 L 146.007812 204.320312 C 146.007812 202.832031 145.382812 202.085938 144.132812 202.085938 C 143.414062 202.085938 142.898438 202.285156 142.585938 202.679688 C 142.273438 203.066406 142.117188 203.503906 142.117188 203.992188 L 138.023438 203.820312 C 138.023438 203.1875 138.164062 202.5625 138.445312 201.945312 C 138.726562 201.332031 139.125 200.78125 139.648438 200.289062 C 140.167969 199.789062 140.796875 199.394531 141.539062 199.101562 C 142.289062 198.800781 143.132812 198.648438 144.070312 198.648438 Z M 143.820312 207.710938 C 143.203125 207.753906 142.699219 207.890625 142.304688 208.117188 C 141.90625 208.335938 141.710938 208.707031 141.710938 209.226562 C 141.710938 209.71875 141.867188 210.0625 142.179688 210.257812 C 142.5 210.445312 142.90625 210.539062 143.398438 210.539062 C 144.148438 210.539062 144.765625 210.347656 145.257812 209.960938 C 145.757812 209.566406 146.007812 208.976562 146.007812 208.195312 L 146.007812 207.570312 Z M 136.398438 192.484375 "/>
<path fill-rule="nonzero" fill="rgb(100%, 100%, 100%)" fill-opacity="1" d="M 164.015625 213.601562 L 164.015625 212.117188 C 163.640625 212.609375 163.082031 213.03125 162.34375 213.382812 C 161.613281 213.734375 160.734375 213.914062 159.703125 213.914062 C 158.671875 213.914062 157.726562 213.734375 156.875 213.382812 C 156.03125 213.03125 155.300781 212.519531 154.6875 211.851562 C 154.070312 211.1875 153.59375 210.394531 153.25 209.476562 C 152.90625 208.550781 152.734375 207.519531 152.734375 206.382812 C 152.734375 205.238281 152.90625 204.207031 153.25 203.289062 C 153.59375 202.363281 154.070312 201.570312 154.6875 200.914062 C 155.300781 200.25 156.03125 199.738281 156.875 199.382812 C 157.726562 199.03125 158.671875 198.851562 159.703125 198.851562 C 160.648438 198.851562 161.472656 199.003906 162.171875 199.304688 C 162.878906 199.597656 163.421875 199.957031 163.796875 200.382812 L 163.796875 191.851562 L 167.859375 191.851562 L 167.859375 213.601562 Z M 160.375 202.351562 C 159.351562 202.351562 158.515625 202.703125 157.859375 203.398438 C 157.203125 204.097656 156.875 205.09375 156.875 206.382812 C 156.875 207.664062 157.203125 208.65625 157.859375 209.351562 C 158.515625 210.039062 159.351562 210.382812 160.375 210.382812 C 161.382812 210.382812 162.207031 210.0625 162.84375 209.414062 C 163.476562 208.769531 163.796875 207.859375 163.796875 206.679688 L 163.796875 206.039062 C 163.796875 204.863281 163.476562 203.957031 162.84375 203.320312 C 162.207031 202.675781 161.382812 202.351562 160.375 202.351562 Z M 151.5 192.683594 "/>
<path fill-rule="nonzero" fill="rgb(100%, 100%, 100%)" fill-opacity="1" d="M 177.171875 198.75 C 179.128906 198.75 180.617188 199.242188 181.640625 200.21875 C 182.671875 201.199219 183.1875 202.648438 183.1875 204.5625 L 183.1875 213.5 L 179.25 213.5 L 179.25 212.328125 C 178.832031 212.757812 178.320312 213.109375 177.71875 213.390625 C 177.113281 213.671875 176.390625 213.8125 175.546875 213.8125 C 174.085938 213.8125 172.921875 213.449219 172.046875 212.71875 C 171.171875 211.992188 170.734375 210.929688 170.734375 209.53125 C 170.734375 208.71875 170.890625 208.042969 171.203125 207.5 C 171.523438 206.949219 171.953125 206.507812 172.484375 206.171875 C 173.015625 205.828125 173.628906 205.578125 174.328125 205.421875 C 175.023438 205.265625 175.757812 205.167969 176.53125 205.125 L 179.109375 204.984375 L 179.109375 204.421875 C 179.109375 202.933594 178.484375 202.1875 177.234375 202.1875 C 176.515625 202.1875 176 202.386719 175.6875 202.78125 C 175.375 203.167969 175.21875 203.605469 175.21875 204.09375 L 171.125 203.921875 C 171.125 203.289062 171.265625 202.664062 171.546875 202.046875 C 171.828125 201.433594 172.226562 200.882812 172.75 200.390625 C 173.269531 199.890625 173.898438 199.496094 174.640625 199.203125 C 175.390625 198.902344 176.234375 198.75 177.171875 198.75 Z M 176.921875 207.8125 C 176.304688 207.855469 175.800781 207.992188 175.40625 208.21875 C 175.007812 208.4375 174.8125 208.808594 174.8125 209.328125 C 174.8125 209.820312 174.96875 210.164062 175.28125 210.359375 C 175.601562 210.546875 176.007812 210.640625 176.5 210.640625 C 177.25 210.640625 177.867188 210.449219 178.359375 210.0625 C 178.859375 209.667969 179.109375 209.078125 179.109375 208.296875 L 179.109375 207.671875 Z M 169.5 192.585938 "/>
<path fill-rule="nonzero" fill="rgb(100%, 100%, 100%)" fill-opacity="1" d="M 87.511719 265.28125 C 88.019531 265.28125 88.488281 265.34375 88.917969 265.46875 C 89.34375 265.59375 89.714844 265.789062 90.027344 266.046875 C 90.339844 266.308594 90.578125 266.636719 90.746094 267.03125 C 90.921875 267.417969 91.011719 267.875 91.011719 268.40625 C 91.011719 268.9375 90.90625 269.386719 90.699219 269.75 C 90.5 270.117188 90.238281 270.402344 89.917969 270.609375 C 90.34375 270.777344 90.707031 271.078125 91.011719 271.515625 C 91.324219 271.953125 91.480469 272.527344 91.480469 273.234375 C 91.480469 273.777344 91.386719 274.25 91.199219 274.65625 C 91.019531 275.054688 90.769531 275.390625 90.449219 275.671875 C 90.136719 275.945312 89.753906 276.152344 89.308594 276.296875 C 88.859375 276.433594 88.375 276.5 87.855469 276.5 L 82.824219 276.5 L 82.824219 265.28125 Z M 85.136719 269.78125 L 87.371094 269.78125 C 87.753906 269.78125 88.0625 269.6875 88.292969 269.5 C 88.53125 269.304688 88.652344 268.992188 88.652344 268.5625 C 88.652344 268.136719 88.519531 267.824219 88.261719 267.625 C 88.011719 267.417969 87.671875 267.3125 87.246094 267.3125 L 85.136719 267.3125 Z M 85.136719 274.4375 L 87.574219 274.4375 C 88.03125 274.4375 88.402344 274.339844 88.683594 274.140625 C 88.964844 273.933594 89.105469 273.589844 89.105469 273.109375 C 89.105469 272.632812 88.964844 272.289062 88.683594 272.078125 C 88.402344 271.859375 88.042969 271.75 87.605469 271.75 L 85.136719 271.75 Z M 81.699219 265.296875 "/>
<path fill-rule="nonzero" fill="rgb(100%, 100%, 100%)" fill-opacity="1" d="M 97.527344 272.46875 L 95.652344 272.46875 L 95.652344 276.5 L 93.324219 276.5 L 93.324219 265.28125 L 98.121094 265.28125 C 98.652344 265.28125 99.140625 265.367188 99.589844 265.53125 C 100.035156 265.6875 100.417969 265.917969 100.730469 266.21875 C 101.050781 266.523438 101.300781 266.898438 101.480469 267.34375 C 101.65625 267.792969 101.746094 268.304688 101.746094 268.875 C 101.746094 269.65625 101.582031 270.324219 101.261719 270.875 C 100.9375 271.417969 100.496094 271.824219 99.933594 272.09375 L 102.324219 276.5 L 99.714844 276.5 Z M 97.839844 270.40625 C 98.285156 270.40625 98.65625 270.277344 98.949219 270.015625 C 99.238281 269.757812 99.386719 269.375 99.386719 268.875 C 99.386719 268.367188 99.238281 267.980469 98.949219 267.71875 C 98.65625 267.449219 98.285156 267.3125 97.839844 267.3125 L 95.636719 267.3125 L 95.636719 270.40625 Z M 92.199219 265.296875 "/>
<path fill-rule="nonzero" fill="rgb(100%, 100%, 100%)" fill-opacity="1" d="M 111.671875 276.5 L 110.75 274.34375 L 106.078125 274.34375 L 105.15625 276.5 L 102.625 276.5 L 107.4375 265.28125 L 109.390625 265.28125 L 114.21875 276.5 Z M 109.9375 272.453125 L 108.421875 268.859375 L 106.90625 272.453125 Z M 102.5 265.296875 "/>
<path fill-rule="nonzero" fill="rgb(100%, 100%, 100%)" fill-opacity="1" d="M 118.421875 265.109375 C 119.023438 265.109375 119.578125 265.1875 120.078125 265.34375 C 120.578125 265.5 121.007812 265.730469 121.375 266.03125 C 121.75 266.335938 122.035156 266.699219 122.234375 267.125 C 122.441406 267.542969 122.554688 268.023438 122.578125 268.5625 L 120.203125 268.6875 C 120.191406 268.210938 120.035156 267.828125 119.734375 267.546875 C 119.429688 267.265625 119.007812 267.125 118.46875 267.125 C 117.925781 267.125 117.507812 267.25 117.21875 267.5 C 116.9375 267.75 116.796875 268.074219 116.796875 268.46875 C 116.796875 268.6875 116.835938 268.871094 116.921875 269.015625 C 117.015625 269.152344 117.144531 269.277344 117.3125 269.390625 C 117.488281 269.496094 117.710938 269.589844 117.984375 269.671875 C 118.265625 269.757812 118.597656 269.84375 118.984375 269.9375 C 119.554688 270.085938 120.078125 270.246094 120.546875 270.421875 C 121.015625 270.601562 121.414062 270.8125 121.75 271.0625 C 122.09375 271.3125 122.351562 271.617188 122.53125 271.96875 C 122.707031 272.3125 122.796875 272.734375 122.796875 273.234375 C 122.796875 273.828125 122.6875 274.34375 122.46875 274.78125 C 122.25 275.210938 121.953125 275.5625 121.578125 275.84375 C 121.203125 276.125 120.765625 276.335938 120.265625 276.46875 C 119.765625 276.601562 119.234375 276.671875 118.671875 276.671875 C 118.023438 276.671875 117.425781 276.59375 116.875 276.4375 C 116.332031 276.28125 115.859375 276.054688 115.453125 275.75 C 115.054688 275.4375 114.742188 275.058594 114.515625 274.609375 C 114.296875 274.164062 114.179688 273.648438 114.171875 273.0625 L 116.53125 272.9375 C 116.539062 273.199219 116.597656 273.4375 116.703125 273.65625 C 116.816406 273.867188 116.96875 274.046875 117.15625 274.203125 C 117.34375 274.351562 117.566406 274.464844 117.828125 274.546875 C 118.085938 274.621094 118.367188 274.65625 118.671875 274.65625 C 119.191406 274.65625 119.613281 274.558594 119.9375 274.359375 C 120.269531 274.164062 120.4375 273.828125 120.4375 273.359375 C 120.4375 272.933594 120.238281 272.621094 119.84375 272.421875 C 119.457031 272.214844 118.890625 272.011719 118.140625 271.8125 C 117.628906 271.6875 117.148438 271.554688 116.703125 271.40625 C 116.253906 271.25 115.859375 271.054688 115.515625 270.8125 C 115.179688 270.574219 114.914062 270.273438 114.71875 269.90625 C 114.53125 269.542969 114.4375 269.089844 114.4375 268.546875 C 114.4375 268.089844 114.515625 267.652344 114.671875 267.234375 C 114.835938 266.820312 115.085938 266.453125 115.421875 266.140625 C 115.753906 265.828125 116.171875 265.578125 116.671875 265.390625 C 117.171875 265.203125 117.753906 265.109375 118.421875 265.109375 Z M 113.5 265.296875 "/>
<path fill-rule="nonzero" fill="rgb(100%, 100%, 100%)" fill-opacity="1" d="M 124.625 276.5 L 124.625 265.28125 L 126.953125 265.28125 L 126.953125 276.5 Z M 123.5 265.296875 "/>
<path fill-rule="nonzero" fill="rgb(100%, 100%, 100%)" fill-opacity="1" d="M 136.242188 274.4375 L 136.242188 276.5 L 129.023438 276.5 L 129.023438 265.28125 L 131.351562 265.28125 L 131.351562 274.4375 Z M 127.898438 265.296875 "/>
<path fill-rule="nonzero" fill="rgb(0%, 12.941176%, 44.313725%)" fill-opacity="1" d="M 185.65625 267.03125 L 185.65625 270.875 L 184.0625 270.875 L 184.0625 267.03125 L 182.3125 267.03125 L 182.3125 265.484375 L 187.421875 265.484375 L 187.421875 267.03125 Z M 192.9375 270.875 L 192.9375 268.640625 L 191.71875 270.8125 L 191 270.8125 L 189.78125 268.640625 L 189.78125 270.875 L 188.1875 270.875 L 188.1875 265.484375 L 189.546875 265.484375 L 191.359375 268.734375 L 193.171875 265.484375 L 194.546875 265.484375 L 194.546875 270.875 Z M 182 265.496094 "/>
<path fill-rule="nonzero" fill="rgb(100%, 100%, 100%)" fill-opacity="1" d="M 220 46 L 410 46 L 410 236 L 220 236 Z M 220 46 "/>
<path fill="none" stroke-width="1" stroke-linecap="butt" stroke-linejoin="miter" stroke="rgb(0%, 0%, 0%)" stroke-opacity="1" stroke-miterlimit="10" d="M 4 4.5 L 11 4.5 M 12 4.5 L 13 4.5 M 15 4.5 L 16 4.5 M 20 4.5 L 21 4.5 M 23 4.5 L 24 4.5 M 27 4.5 L 28 4.5 M 29 4.5 L 31 4.5 M 34 4.5 L 41 4.5 M 4 5.5 L 5 5.5 M 10 5.5 L 11 5.5 M 12 5.5 L 14 5.5 M 16 5.5 L 17 5.5 M 19 5.5 L 20 5.5 M 21 5.5 L 23 5.5 M 25 5.5 L 30 5.5 M 34 5.5 L 35 5.5 M 40 5.5 L 41 5.5 M 4 6.5 L 5 6.5 M 6 6.5 L 9 6.5 M 10 6.5 L 11 6.5 M 13 6.5 L 15 6.5 M 22 6.5 L 23 6.5 M 28 6.5 L 30 6.5 M 31 6.5 L 33 6.5 M 34 6.5 L 35 6.5 M 36 6.5 L 39 6.5 M 40 6.5 L 41 6.5 M 4 7.5 L 5 7.5 M 6 7.5 L 9 7.5 M 10 7.5 L 11 7.5 M 12 7.5 L 16 7.5 M 17 7.5 L 19 7.5 M 20 7.5 L 22 7.5 M 28 7.5 L 32 7.5 M 34 7.5 L 35 7.5 M 36 7.5 L 39 7.5 M 40 7.5 L 41 7.5 M 4 8.5 L 5 8.5 M 6 8.5 L 9 8.5 M 10 8.5 L 11 8.5 M 13 8.5 L 16 8.5 M 17 8.5 L 19 8.5 M 21 8.5 L 22 8.5 M 23 8.5 L 24 8.5 M 28 8.5 L 29 8.5 M 30 8.5 L 32 8.5 M 34 8.5 L 35 8.5 M 36 8.5 L 39 8.5 M 40 8.5 L 41 8.5 M 4 9.5 L 5 9.5 M 10 9.5 L 11 9.5 M 13 9.5 L 19 9.5 M 20 9.5 L 21 9.5 M 22 9.5 L 25 9.5 M 30 9.5 L 31 9.5 M 32 9.5 L 33 9.5 M 34 9.5 L 35 9.5 M 40 9.5 L 41 9.5 M 4 10.5 L 11 10.5 M 12 10.5 L 13 10.5 M 14 10.5 L 15 10.5 M 16 10.5 L 17 10.5 M 18 10.5 L 19 10.5 M 20 10.5 L 21 10.5 M 22 10.5 L 23 10.5 M 24 10.5 L 25 10.5 M 26 10.5 L 27 10.5 M 28 10.5 L 29 10.5 M 30 10.5 L 31 10.5 M 32 10.5 L 33 10.5 M 34 10.5 L 41 10.5 M 12 11.5 L 13 11.5 M 14 11.5 L 15 11.5 M 16 11.5 L 17 11.5 M 18 11.5 L 22 11.5 M 24 11.5 L 25 11.5 M 26 11.5 L 27 11.5 M 28 11.5 L 29 11.5 M 30 11.5 L 31 11.5 M 32 11.5 L 33 11.5 M 4 12.5 L 5 12.5 M 6 12.5 L 8 12.5 M 9 12.5 L 12 12.5 M 13 12.5 L 14 12.5 M 15 12.5 L 17 12.5 M 18 12.5 L 19 12.5 M 21 12.5 L 23 12.5 M 25 12.5 L 27 12.5 M 28 12.5 L 29 12.5 M 32 12.5 L 33 12.5 M 34 12.5 L 35 12.5 M 37 12.5 L 38 12.5 M 39 12.5 L 41 12.5 M 7 13.5 L 10 13.5 M 13 13.5 L 15 13.5 M 16 13.5 L 17 13.5 M 18 13.5 L 20 13.5 M 22 13.5 L 25 13.5 M 26 13.5 L 29 13.5 M 32 13.5 L 34 13.5 M 37 13.5 L 38 13.5 M 39 13.5 L 40 13.5 M 5 14.5 L 6 14.5 M 8 14.5 L 9 14.5 M 10 14.5 L 11 14.5 M 12 14.5 L 15 14.5 M 18 14.5 L 19 14.5 M 20 14.5 L 23 14.5 M 25 14.5 L 30 14.5 M 33 14.5 L 34 14.5 M 37 14.5 L 39 14.5 M 4 15.5 L 7 15.5 M 8 15.5 L 9 15.5 M 12 15.5 L 14 15.5 M 15 15.5 L 17 15.5 M 18 15.5 L 19 15.5 M 20 15.5 L 21 15.5 M 24 15.5 L 25 15.5 M 29 15.5 L 31 15.5 M 33 15.5 L 36 15.5 M 38 15.5 L 39 15.5 M 4 16.5 L 5 16.5 M 10 16.5 L 11 16.5 M 12 16.5 L 14 16.5 M 18 16.5 L 20 16.5 M 21 16.5 L 23 16.5 M 26 16.5 L 27 16.5 M 28 16.5 L 35 16.5 M 36 16.5 L 37 16.5 M 38 16.5 L 41 16.5 M 4 17.5 L 5 17.5 M 6 17.5 L 9 17.5 M 12 17.5 L 14 17.5 M 15 17.5 L 17 17.5 M 18 17.5 L 22 17.5 M 23 17.5 L 24 17.5 M 28 17.5 L 30 17.5 M 31 17.5 L 38 17.5 M 40 17.5 L 41 17.5 M 7 18.5 L 8 18.5 M 10 18.5 L 11 18.5 M 14 18.5 L 16 18.5 M 17 18.5 L 18 18.5 M 22 18.5 L 24 18.5 M 26 18.5 L 27 18.5 M 29 18.5 L 31 18.5 M 36 18.5 L 37 18.5 M 38 18.5 L 40 18.5 M 7 19.5 L 8 19.5 M 12 19.5 L 14 19.5 M 17 19.5 L 18 19.5 M 19 19.5 L 20 19.5 M 23 19.5 L 28 19.5 M 30 19.5 L 31 19.5 M 34 19.5 L 37 19.5 M 39 19.5 L 40 19.5 M 4 20.5 L 5 20.5 M 8 20.5 L 9 20.5 M 10 20.5 L 11 20.5 M 12 20.5 L 16 20.5 M 17 20.5 L 18 20.5 M 25 20.5 L 26 20.5 M 29 20.5 L 31 20.5 M 32 20.5 L 34 20.5 M 37 20.5 L 39 20.5 M 40 20.5 L 41 20.5 M 6 21.5 L 7 21.5 M 8 21.5 L 10 21.5 M 12 21.5 L 13 21.5 M 15 21.5 L 16 21.5 M 17 21.5 L 18 21.5 M 21 21.5 L 23 21.5 M 26 21.5 L 35 21.5 M 37 21.5 L 38 21.5 M 39 21.5 L 41 21.5 M 6 22.5 L 8 22.5 M 9 22.5 L 13 22.5 M 16 22.5 L 19 22.5 M 24 22.5 L 25 22.5 M 31 22.5 L 32 22.5 M 33 22.5 L 34 22.5 M 36 22.5 L 37 22.5 M 39 22.5 L 41 22.5 M 4 23.5 L 5 23.5 M 6 23.5 L 10 23.5 M 12 23.5 L 13 23.5 M 14 23.5 L 17 23.5 M 18 23.5 L 25 23.5 M 26 23.5 L 29 23.5 M 30 23.5 L 32 23.5 M 34 23.5 L 35 23.5 M 36 23.5 L 37 23.5 M 39 23.5 L 40 23.5 M 7 24.5 L 8 24.5 M 10 24.5 L 11 24.5 M 12 24.5 L 14 24.5 M 15 24.5 L 17 24.5 M 19 24.5 L 24 24.5 M 25 24.5 L 26 24.5 M 27 24.5 L 28 24.5 M 30 24.5 L 31 24.5 M 32 24.5 L 34 24.5 M 35 24.5 L 38 24.5 M 40 24.5 L 41 24.5 M 4 25.5 L 7 25.5 M 11 25.5 L 12 25.5 M 13 25.5 L 15 25.5 M 16 25.5 L 17 25.5 M 18 25.5 L 19 25.5 M 20 25.5 L 21 25.5 M 22 25.5 L 25 25.5 M 27 25.5 L 28 25.5 M 30 25.5 L 31 25.5 M 32 25.5 L 33 25.5 M 37 25.5 L 38 25.5 M 39 25.5 L 40 25.5 M 4 26.5 L 5 26.5 M 7 26.5 L 13 26.5 M 16 26.5 L 17 26.5 M 18 26.5 L 19 26.5 M 26 26.5 L 29 26.5 M 32 26.5 L 36 26.5 M 39 26.5 L 40 26.5 M 4 27.5 L 6 27.5 M 12 27.5 L 13 27.5 M 14 27.5 L 15 27.5 M 17 27.5 L 19 27.5 M 20 27.5 L 21 27.5 M 22 27.5 L 24 27.5 M 29 27.5 L 30 27.5 M 33 27.5 L 34 27.5 M 36 27.5 L 40 27.5 M 4 28.5 L 5 28.5 M 6 28.5 L 7 28.5 M 8 28.5 L 9 28.5 M 10 28.5 L 14 28.5 M 15 28.5 L 17 28.5 M 19 28.5 L 20 28.5 M 21 28.5 L 24 28.5 M 27 28.5 L 33 28.5 M 34 28.5 L 37 28.5 M 38 28.5 L 39 28.5 M 5 29.5 L 7 29.5 M 8 29.5 L 10 29.5 M 13 29.5 L 14 29.5 M 15 29.5 L 17 29.5 M 21 29.5 L 24 29.5 M 26 29.5 L 27 29.5 M 30 29.5 L 32 29.5 M 34 29.5 L 35 29.5 M 36 29.5 L 38 29.5 M 39 29.5 L 41 29.5 M 5 30.5 L 6 30.5 M 7 30.5 L 8 30.5 M 9 30.5 L 11 30.5 M 13 30.5 L 14 30.5 M 16 30.5 L 19 30.5 M 21 30.5 L 22 30.5 M 23 30.5 L 25 30.5 M 28 30.5 L 31 30.5 M 33 30.5 L 35 30.5 M 39 30.5 L 40 30.5 M 4 31.5 L 5 31.5 M 6 31.5 L 7 31.5 M 9 31.5 L 10 31.5 M 11 31.5 L 13 31.5 M 16 31.5 L 18 31.5 M 19 31.5 L 21 31.5 M 24 31.5 L 29 31.5 M 31 31.5 L 33 31.5 M 37 31.5 L 38 31.5 M 6 32.5 L 11 32.5 M 16 32.5 L 18 32.5 M 20 32.5 L 21 32.5 M 22 32.5 L 23 32.5 M 24 32.5 L 28 32.5 M 29 32.5 L 30 32.5 M 31 32.5 L 40 32.5 M 12 33.5 L 14 33.5 M 16 33.5 L 17 33.5 M 19 33.5 L 20 33.5 M 24 33.5 L 25 33.5 M 27 33.5 L 31 33.5 M 32 33.5 L 33 33.5 M 36 33.5 L 37 33.5 M 38 33.5 L 41 33.5 M 4 34.5 L 11 34.5 M 12 34.5 L 13 34.5 M 14 34.5 L 15 34.5 M 17 34.5 L 21 34.5 M 22 34.5 L 23 34.5 M 25 34.5 L 27 34.5 M 28 34.5 L 30 34.5 M 32 34.5 L 33 34.5 M 34 34.5 L 35 34.5 M 36 34.5 L 37 34.5 M 38 34.5 L 41 34.5 M 4 35.5 L 5 35.5 M 10 35.5 L 11 35.5 M 12 35.5 L 14 35.5 M 15 35.5 L 17 35.5 M 18 35.5 L 19 35.5 M 20 35.5 L 23 35.5 M 26 35.5 L 27 35.5 M 28 35.5 L 29 35.5 M 31 35.5 L 33 35.5 M 36 35.5 L 37 35.5 M 39 35.5 L 41 35.5 M 4 36.5 L 5 36.5 M 6 36.5 L 9 36.5 M 10 36.5 L 11 36.5 M 14 36.5 L 15 36.5 M 16 36.5 L 18 36.5 M 19 36.5 L 22 36.5 M 23 36.5 L 24 36.5 M 25 36.5 L 26 36.5 M 27 36.5 L 28 36.5 M 30 36.5 L 31 36.5 M 32 36.5 L 38 36.5 M 39 36.5 L 41 36.5 M 4 37.5 L 5 37.5 M 6 37.5 L 9 37.5 M 10 37.5 L 11 37.5 M 12 37.5 L 15 37.5 M 16 37.5 L 17 37.5 M 18 37.5 L 19 37.5 M 20 37.5 L 22 37.5 M 23 37.5 L 26 37.5 M 27 37.5 L 28 37.5 M 31 37.5 L 35 37.5 M 36 37.5 L 38 37.5 M 39 37.5 L 41 37.5 M 4 38.5 L 5 38.5 M 6 38.5 L 9 38.5 M 10 38.5 L 11 38.5 M 12 38.5 L 15 38.5 M 17 38.5 L 18 38.5 M 22 38.5 L 23 38.5 M 25 38.5 L 26 38.5 M 27 38.5 L 28 38.5 M 29 38.5 L 30 38.5 M 31 38.5 L 35 38.5 M 36 38.5 L 38 38.5 M 4 39.5 L 5 39.5 M 10 39.5 L 11 39.5 M 14 39.5 L 15 39.5 M 16 39.5 L 17 39.5 M 18 39.5 L 20 39.5 M 22 39.5 L 24 39.5 M 26 39.5 L 28 39.5 M 29 39.5 L 31 39.5 M 33 39.5 L 34 39.5 M 35 39.5 L 37 39.5 M 38 39.5 L 39 39.5 M 4 40.5 L 11 40.5 M 12 40.5 L 15 40.5 M 16 40.5 L 17 40.5 M 18 40.5 L 20 40.5 M 21 40.5 L 22 40.5 M 24 40.5 L 25 40.5 M 26 40.5 L 27 40.5 M 28 40.5 L 30 40.5 M 31 40.5 L 32 40.5 M 36 40.5 L 37 40.5 M 38 40.5 L 41 40.5 " transform="matrix(4, 0, 0, 4, 220, 50)"/>
</svg>
