<svg width="35" height="35" viewBox="0 0 35 35" fill="none" xmlns="http://www.w3.org/2000/svg">
<path d="M17.1582 21.3675L11.4271 27.09C10.7962 26.53 10.1828 25.9525 9.58688 25.3575C7.78167 23.5375 6.15173 21.63 4.69705 19.635C3.25989 17.64 2.10316 15.645 1.26189 13.6675C0.420631 11.6725 0 9.76501 0 7.94501C0 6.75501 0.210315 5.61751 0.630946 4.56751C1.05158 3.5 1.71758 2.52 2.64647 1.645C3.76815 0.542501 4.99499 0 6.29194 0C6.78268 0 7.27341 0.105 7.71157 0.315001C8.16725 0.525001 8.57036 0.840001 8.88583 1.295L12.9519 7.01751C13.2674 7.45501 13.4952 7.85751 13.653 8.24251C13.8107 8.61001 13.8984 8.97751 13.8984 9.31001C13.8984 9.73001 13.7757 10.15 13.5303 10.5525C13.3025 10.955 12.9695 11.375 12.5488 11.795L11.2168 13.1775C11.024 13.37 10.9364 13.5975 10.9364 13.8775C10.9364 14.0175 10.9539 14.14 10.989 14.28C11.0416 14.42 11.0941 14.525 11.1292 14.63C11.4447 15.2075 11.988 15.96 12.7591 16.87C13.5478 17.78 14.3891 18.7075 15.3005 19.635C15.9314 20.2475 16.5448 20.8425 17.1582 21.3675Z" fill="#3B5998"/>
<path d="M35 28.5775C35 29.0675 34.9124 29.575 34.7371 30.065C34.6845 30.205 34.6319 30.345 34.5618 30.485C34.2639 31.115 33.8783 31.71 33.3701 32.27C32.5113 33.215 31.5648 33.8975 30.4957 34.335C30.4782 34.335 30.4607 34.3525 30.4432 34.3525C29.4091 34.7725 28.2874 35 27.0781 35C25.2904 35 23.3801 34.58 21.3645 33.7225C19.349 32.865 17.3335 31.71 15.3355 30.2575C14.652 29.75 13.9685 29.2425 13.32 28.7L19.0511 22.9775C19.5418 23.345 19.98 23.625 20.348 23.8175C20.4357 23.8525 20.5408 23.905 20.6635 23.9575C20.8037 24.01 20.9439 24.0275 21.1017 24.0275C21.3996 24.0275 21.6274 23.9225 21.8202 23.73L23.1522 22.4175C23.5904 21.98 24.011 21.6475 24.4141 21.4375C24.8172 21.1925 25.2203 21.07 25.6585 21.07C25.9915 21.07 26.342 21.14 26.7276 21.2975C27.1132 21.455 27.5163 21.6825 27.9544 21.98L33.7556 26.0925C34.2113 26.4075 34.5268 26.775 34.7196 27.2125C34.8948 27.65 35 28.0875 35 28.5775Z" fill="#268DFF"/>
</svg>
