<svg width="70" height="76" viewBox="0 0 70 76" fill="none" xmlns="http://www.w3.org/2000/svg">
<path d="M0 10C0 4.47715 4.47715 0 10 0H60C65.5228 0 70 4.47715 70 10V66C70 71.5228 65.5228 76 60 76H10C4.47715 76 0 71.5228 0 66V10Z" fill="#004CFF"/>
<g clip-path="url(#clip0_208_3749)">
<g clip-path="url(#clip1_208_3749)">
<path d="M32.5948 34.4947C32.6324 34.465 32.6717 34.4384 32.7107 34.4104C32.8097 34.339 32.9132 34.2745 33.0208 34.2172C33.0631 34.1941 33.104 34.1711 33.1473 34.1508C34.1516 33.663 35.3508 33.8274 36.1868 34.5671C36.231 34.6056 36.2669 34.6492 36.3086 34.6898C36.3926 34.7708 36.4717 34.8567 36.5452 34.9473C36.5869 34.9994 36.6218 35.0557 36.6578 35.1108C36.7176 35.1976 36.7728 35.2876 36.8224 35.3806C36.8546 35.4413 36.8826 35.5031 36.91 35.5662C36.9512 35.6603 36.9868 35.7569 37.0173 35.8549C37.0376 35.9208 37.0568 35.9856 37.0736 36.0523C37.0966 36.1546 37.1139 36.2578 37.1255 36.3621C37.1331 36.4272 37.1427 36.4914 37.146 36.557C37.1502 36.6715 37.1471 36.7859 37.1373 36.9001C37.1331 36.9561 37.1337 37.0124 37.1266 37.0686C37.1038 37.2328 37.0659 37.3947 37.014 37.552C37.014 37.5605 37.0113 37.5684 37.0085 37.5767L38.5178 38.4481L41.3284 33.5758L25.754 24.582L22.9435 29.4538L32.2419 34.8213C32.3497 34.7024 32.468 34.5932 32.5948 34.4947V34.4947Z" fill="white"/>
<path d="M20.1544 29.7883L24.6512 22L25.6242 22.5618L21.1273 30.3501L20.1544 29.7883Z" fill="white"/>
<path d="M45.4882 39.8725L46.0506 38.8984L49.9447 41.1469L49.3824 42.121L45.4882 39.8725Z" fill="white"/>
<path d="M40.0584 38.0343L41.7447 35.1143L45.6389 37.363L43.9525 40.283L40.0584 38.0343Z" fill="white"/>
<path d="M35.67 37.9645C35.6442 37.917 35.6115 37.8736 35.5728 37.8358C35.6615 37.7438 35.7391 37.6417 35.8039 37.5317C36.268 36.7247 35.9938 35.6947 35.1899 35.2253C35.0744 35.1605 34.9514 35.1098 34.8241 35.0735C34.7865 35.0623 34.7478 35.0554 34.7118 35.0469C34.6193 35.0269 34.5252 35.0145 34.4308 35.0099C34.3901 35.0099 34.3503 35.0049 34.3097 35.006C34.1755 35.009 34.0421 35.028 33.9123 35.0623C33.3395 35.213 32.8885 35.6551 32.7269 36.2252C32.5652 36.7953 32.7167 37.4082 33.1254 37.8374C33.087 37.8747 33.0546 37.9176 33.0288 37.9645L25.412 53.1862C25.2734 53.4642 25.3862 53.8018 25.664 53.9407C25.9418 54.0793 26.2796 53.9667 26.4182 53.6887L33.7847 38.9504V53.4376C33.7847 53.748 34.0363 53.9997 34.3468 53.9997C34.6572 53.9997 34.9089 53.748 34.9089 53.4376V38.9548L42.2725 53.6887C42.4114 53.9667 42.749 54.0793 43.027 53.9407C43.3048 53.8018 43.4176 53.4642 43.2787 53.1862L35.67 37.9645Z" fill="white"/>
</g>
</g>
<defs>
<clipPath id="clip0_208_3749">
<rect width="32" height="32" fill="white" transform="translate(19 22)"/>
</clipPath>
<clipPath id="clip1_208_3749">
<rect width="32" height="32" fill="white" transform="translate(19 22)"/>
</clipPath>
</defs>
</svg>
