<svg width="30" height="30" viewBox="0 0 30 30" fill="none" xmlns="http://www.w3.org/2000/svg">
<path d="M30 26.6667V30H26.6667V26.6667H30ZM23.3333 26.6667V30H20V26.6667H23.3333ZM16.6667 26.6667V30H13.3333V26.6667H16.6667ZM10 26.6667V30H6.66667V26.6667H10ZM3.33333 26.6667V30H0V26.6667H3.33333ZM30 20V23.3333H26.6667V20H30ZM3.33333 20V23.3333H0V20H3.33333ZM3.33333 13.3333V16.6667H0V13.3333H3.33333ZM21.6667 0C26.145 0 29.8033 3.54 29.9917 7.97167L30 8.33333V16.6667H26.6667V8.33333C26.6667 5.68167 24.575 3.495 21.96 3.34167L21.6667 3.33333H13.3333V0H21.6667ZM3.33333 6.66667V10H0V6.66667H3.33333ZM3.33333 0V3.33333H0V0H3.33333ZM10 0V3.33333H6.66667V0H10Z" fill="#004CFF"/>
</svg>
