<svg width="70" height="76" viewBox="0 0 70 76" fill="none" xmlns="http://www.w3.org/2000/svg">
<path d="M0 10C0 4.47715 4.47715 0 10 0H60C65.5228 0 70 4.47715 70 10V66C70 71.5228 65.5228 76 60 76H10C4.47715 76 0 71.5228 0 66V10Z" fill="#004CFF"/>
<g clip-path="url(#clip0_208_3739)">
<g clip-path="url(#clip1_208_3739)">
<path d="M20.7143 42.0004C20.7143 42.316 20.9702 42.5718 21.2857 42.5718H48.7143C49.0299 42.5718 49.2857 42.316 49.2857 42.0004V24.2861H20.7143V42.0004Z" fill="white"/>
<path d="M50.4286 22H19.5714C19.2559 22 19 22.2559 19 22.5714C19 22.887 19.2559 23.1429 19.5714 23.1429H50.4286C50.7441 23.1429 51 22.887 51 22.5714C51 22.2559 50.7441 22 50.4286 22Z" fill="white"/>
<path d="M39.5714 51.7139H35.5714V44.8567H36.1429C36.4584 44.8567 36.7143 44.6009 36.7143 44.2853V43.7139H33.2857V44.2853C33.2857 44.6009 33.5416 44.8567 33.8572 44.8567H34.4286V51.7139H30.4286C29.4819 51.7139 28.7143 52.4814 28.7143 53.4282V53.9996H41.2857V53.4282C41.2857 52.4814 40.5181 51.7139 39.5714 51.7139Z" fill="white"/>
</g>
</g>
<defs>
<clipPath id="clip0_208_3739">
<rect width="32" height="32" fill="white" transform="translate(19 22)"/>
</clipPath>
<clipPath id="clip1_208_3739">
<rect width="32" height="32" fill="white" transform="translate(19 22)"/>
</clipPath>
</defs>
</svg>
