<svg width="53" height="55" viewBox="0 0 53 55" fill="none" xmlns="http://www.w3.org/2000/svg">
<g clip-path="url(#clip0_74_1025)">
<path d="M52.6803 27.5C52.6803 12.3105 40.9172 0 26.4033 0C11.8893 0 0.126221 12.3105 0.126221 27.5C0.126221 42.6895 11.8893 55 26.4033 55C26.5572 55 26.7112 55 26.8652 54.9893V33.5908H21.2197V26.7051H26.8652V21.6348C26.8652 15.7588 30.2935 12.5576 35.3025 12.5576C37.7044 12.5576 39.7676 12.7402 40.3629 12.8262V18.9707H36.9141C34.194 18.9707 33.6602 20.3242 33.6602 22.3115V26.6943H40.1782L39.3262 33.5801H33.6602V53.9365C44.6432 50.6387 52.6803 40.0576 52.6803 27.5Z" fill="#004CFF"/>
</g>
<defs>
<clipPath id="clip0_74_1025">
<rect width="52.5541" height="55" fill="white" transform="translate(0.126221)"/>
</clipPath>
</defs>
</svg>
