<svg width="54" height="55" viewBox="0 0 54 55" fill="none" xmlns="http://www.w3.org/2000/svg">
<g clip-path="url(#clip0_74_1023)">
<path d="M32.2532 27.5C32.2532 30.4071 30.0015 32.7637 27.2236 32.7637C24.4458 32.7637 22.1941 30.4071 22.1941 27.5C22.1941 24.5929 24.4458 22.2363 27.2236 22.2363C30.0015 22.2363 32.2532 24.5929 32.2532 27.5Z" fill="#004CFF"/>
<path d="M38.9861 18.1868C38.7443 17.5012 38.3586 16.8806 37.8574 16.3711C37.3706 15.8466 36.778 15.4429 36.1225 15.1899C35.5908 14.9738 34.7921 14.7166 33.321 14.6465C31.7296 14.5706 31.2525 14.5542 27.2236 14.5542C23.1944 14.5542 22.7173 14.5701 21.1263 14.6461C19.6552 14.7166 18.8561 14.9738 18.3248 15.1899C17.6693 15.4429 17.0763 15.8466 16.5899 16.3711C16.0887 16.8806 15.703 17.5007 15.4608 18.1868C15.2543 18.7432 15.0085 19.5795 14.9416 21.1191C14.869 22.7841 14.8534 23.2835 14.8534 27.5002C14.8534 31.7165 14.869 32.2159 14.9416 33.8813C15.0085 35.4209 15.2543 36.2568 15.4608 36.8132C15.703 37.4993 16.0883 38.1195 16.5895 38.6289C17.0763 39.1534 17.6689 39.5571 18.3244 39.8101C18.8561 40.0266 19.6552 40.2838 21.1263 40.3539C22.7173 40.4299 23.194 40.4458 27.2232 40.4458C31.2529 40.4458 31.73 40.4299 33.3206 40.3539C34.7917 40.2838 35.5908 40.0266 36.1225 39.8101C37.4384 39.2789 38.4785 38.1904 38.9861 36.8132C39.1926 36.2568 39.4384 35.4209 39.5057 33.8813C39.5783 32.2159 39.5935 31.7165 39.5935 27.5002C39.5935 23.2835 39.5783 22.7841 39.5057 21.1191C39.4388 19.5795 39.193 18.7432 38.9861 18.1868ZM27.2236 35.6085C22.9442 35.6085 19.4752 31.9784 19.4752 27.4998C19.4752 23.0212 22.9442 19.3911 27.2236 19.3911C31.5026 19.3911 34.9717 23.0212 34.9717 27.4998C34.9717 31.9784 31.5026 35.6085 27.2236 35.6085ZM35.278 20.9655C34.2781 20.9655 33.4673 20.1171 33.4673 19.0705C33.4673 18.024 34.2781 17.1755 35.278 17.1755C36.278 17.1755 37.0888 18.024 37.0888 19.0705C37.0884 20.1171 36.278 20.9655 35.278 20.9655Z" fill="#004CFF"/>
<path d="M27.2236 0C12.7135 0 0.946609 12.3145 0.946609 27.5C0.946609 42.6855 12.7135 55 27.2236 55C41.7338 55 53.5007 42.6855 53.5007 27.5C53.5007 12.3145 41.7338 0 27.2236 0ZM42.2214 34.0104C42.1484 35.6913 41.893 36.839 41.5201 37.8436C40.7363 39.9647 39.134 41.6415 37.1072 42.4619C36.1477 42.8521 35.0507 43.119 33.4449 43.1958C31.8358 43.2726 31.3218 43.291 27.224 43.291C23.1259 43.291 22.6123 43.2726 21.0028 43.1958C19.397 43.119 18.3 42.8521 17.3405 42.4619C16.3333 42.0653 15.4215 41.4439 14.6677 40.6403C13.9003 39.8518 13.3065 38.8972 12.9276 37.8436C12.5547 36.8394 12.2993 35.6913 12.2263 34.0108C12.1521 32.3264 12.1349 31.7885 12.1349 27.5C12.1349 23.2115 12.1521 22.6736 12.2259 20.9896C12.2989 19.3087 12.5539 18.161 12.9268 17.1564C13.3057 16.1028 13.8999 15.1482 14.6677 14.3597C15.4211 13.5561 16.3333 12.9347 17.3401 12.5381C18.3 12.1479 19.3966 11.881 21.0028 11.8042C22.6119 11.7274 23.1259 11.709 27.2236 11.709C31.3214 11.709 31.8354 11.7274 33.4445 11.8047C35.0507 11.881 36.1473 12.1479 37.1072 12.5377C38.114 12.9343 39.0262 13.5561 39.78 14.3597C40.5474 15.1486 41.1416 16.1028 41.5201 17.1564C41.8934 18.161 42.1484 19.3087 42.2218 20.9896C42.2952 22.6736 42.3124 23.2115 42.3124 27.5C42.3124 31.7885 42.2952 32.3264 42.2214 34.0104Z" fill="#004CFF"/>
</g>
<defs>
<clipPath id="clip0_74_1023">
<rect width="52.5541" height="55" fill="white" transform="translate(0.946609)"/>
</clipPath>
</defs>
</svg>
