<svg width="55" height="55" viewBox="0 0 55 55" fill="none" xmlns="http://www.w3.org/2000/svg">
<g clip-path="url(#clip0_74_1024)">
<path d="M27.2747 0C12.4958 0 0.511047 12.3145 0.511047 27.5C0.511047 42.6855 12.4958 55 27.2747 55C42.0536 55 54.0383 42.6855 54.0383 27.5C54.0383 12.3145 42.0536 0 27.2747 0ZM19.4975 41.5723H12.9793V21.4227H19.4975V41.5723ZM16.2386 18.6713H16.1961C14.0089 18.6713 12.5942 17.1241 12.5942 15.1905C12.5942 13.2133 14.0521 11.709 16.2819 11.709C18.5117 11.709 19.8838 13.2133 19.9263 15.1905C19.9263 17.1241 18.5117 18.6713 16.2386 18.6713ZM43.0006 41.5723H36.4833V30.7927C36.4833 28.0837 35.5395 26.2361 33.1811 26.2361C31.3806 26.2361 30.3081 27.4824 29.8369 28.6854C29.6645 29.1159 29.6225 29.7177 29.6225 30.3198V41.5723H23.1047C23.1047 41.5723 23.1901 23.3131 23.1047 21.4227H29.6225V24.2757C30.4886 22.9027 32.0385 20.9498 35.4966 20.9498C39.785 20.9498 43.0006 23.8296 43.0006 30.0185V41.5723Z" fill="#004CFF"/>
</g>
<defs>
<clipPath id="clip0_74_1024">
<rect width="53.5273" height="55" fill="white" transform="translate(0.511047)"/>
</clipPath>
</defs>
</svg>
