<svg width="30" height="27" viewBox="0 0 30 27" fill="none" xmlns="http://www.w3.org/2000/svg">
<path d="M1.5 0H28.5C28.8978 0 29.2794 0.158035 29.5607 0.43934C29.842 0.720644 30 1.10218 30 1.5V25.5C30 25.8978 29.842 26.2794 29.5607 26.5607C29.2794 26.842 28.8978 27 28.5 27H1.5C1.10218 27 0.720644 26.842 0.43934 26.5607C0.158035 26.2794 0 25.8978 0 25.5V1.5C0 1.10218 0.158035 0.720644 0.43934 0.43934C0.720644 0.158035 1.10218 0 1.5 0V0ZM3 3V24H27V3H3ZM15 18H24V21H15V18ZM10.0005 13.5L5.757 9.258L7.8795 7.1355L14.2425 13.5L7.8795 19.8645L5.757 17.742L10.0005 13.5Z" fill="#004CFF"/>
</svg>
