<svg width="30" height="30" viewBox="0 0 30 30" fill="none" xmlns="http://www.w3.org/2000/svg">
<path d="M20 0C20.92 0 21.6667 0.746667 21.6667 1.66667V8.33333C21.6667 9.25333 20.92 10 20 10H16.6667V13.3333H23.3333C24.2533 13.3333 25 14.08 25 15V20H28.3333C29.2533 20 30 20.7467 30 21.6667V28.3333C30 29.2533 29.2533 30 28.3333 30H18.3333C17.4133 30 16.6667 29.2533 16.6667 28.3333V21.6667C16.6667 20.7467 17.4133 20 18.3333 20H21.6667V16.6667H8.33333V20H11.6667C12.5867 20 13.3333 20.7467 13.3333 21.6667V28.3333C13.3333 29.2533 12.5867 30 11.6667 30H1.66667C0.746667 30 0 29.2533 0 28.3333V21.6667C0 20.7467 0.746667 20 1.66667 20H5V15C5 14.08 5.74667 13.3333 6.66667 13.3333H13.3333V10H10C9.08 10 8.33333 9.25333 8.33333 8.33333V1.66667C8.33333 0.746667 9.08 0 10 0H20ZM10 23.3333H3.33333V26.6667H10V23.3333ZM26.6667 23.3333H20V26.6667H26.6667V23.3333ZM18.3333 3.33333H11.6667V6.66667H18.3333V3.33333Z" fill="#004CFF"/>
</svg>
