<svg width="30" height="31" viewBox="0 0 30 31" fill="none" xmlns="http://www.w3.org/2000/svg">
<path d="M6.60699 22.9474C7.18609 22.9488 7.75967 22.8325 8.29472 22.6052C8.8297 22.378 9.3154 22.0442 9.72385 21.6234L14.2226 17.0111C14.3823 16.8572 14.5933 16.7715 14.8124 16.7715C15.0316 16.7715 15.2426 16.8572 15.4022 17.0111L19.9182 21.641C20.3267 22.0619 20.8124 22.3956 21.3474 22.6229C21.8824 22.8502 22.456 22.9665 23.0351 22.9651H23.9177L18.2221 28.8088C17.7985 29.2444 17.2953 29.5899 16.7412 29.8258C16.1872 30.0616 15.5932 30.183 14.9933 30.183C14.3933 30.183 13.7993 30.0616 13.2452 29.8258C12.6912 29.5899 12.188 29.2444 11.7644 28.8088L6.05164 22.9474H6.60699Z" fill="#004CFF"/>
<path d="M23.0361 7.19507C21.8671 7.19574 20.7462 7.67195 19.9193 8.51919L15.4076 13.1491C15.2476 13.3043 15.0358 13.3908 14.8156 13.3908C14.5954 13.3908 14.3835 13.3043 14.2236 13.1491L9.73781 8.53239C9.33011 8.11164 8.84516 7.77797 8.31086 7.55069C7.77656 7.32343 7.20365 7.20705 6.62521 7.20831H6.08276L11.7827 1.37788C12.2056 0.941237 12.7086 0.594696 13.2628 0.358219C13.817 0.121741 14.4113 0 15.0115 0C15.6117 0 16.206 0.121741 16.7601 0.358219C17.3143 0.594696 17.8173 0.941237 18.2403 1.37788L23.9445 7.19507H23.0361Z" fill="#004CFF"/>
<path d="M1.34217 11.7754L4.74317 8.2886H6.60727C7.42415 8.29124 8.20703 8.62431 8.78565 9.21551L13.2845 13.8278C13.4846 14.0346 13.7226 14.1988 13.9849 14.3108C14.2472 14.4228 14.5285 14.4805 14.8127 14.4805C15.0969 14.4805 15.3782 14.4228 15.6406 14.3108C15.9028 14.1988 16.1409 14.0346 16.341 13.8278L20.8571 9.20223C21.4346 8.60944 22.2181 8.27607 23.0354 8.27539H25.2353L28.6578 11.7798C29.0832 12.2137 29.4208 12.7296 29.6511 13.2976C29.8814 13.8657 30 14.4748 30 15.09C30 15.7052 29.8814 16.3144 29.6511 16.8825C29.4208 17.4505 29.0832 17.9664 28.6578 18.4003L25.2353 21.8915H23.0268C22.2099 21.8889 21.427 21.5558 20.8484 20.9646L16.3324 16.3347C15.9209 15.933 15.3745 15.7088 14.8063 15.7088C14.238 15.7088 13.6916 15.933 13.2801 16.3347L8.78993 20.9469C8.21025 21.5392 7.42565 21.8724 6.60727 21.8739H4.74317L1.34217 18.3826C0.916792 17.9487 0.579241 17.4329 0.348907 16.8648C0.118572 16.2967 0 15.6876 0 15.0724C0 14.4572 0.118572 13.8481 0.348907 13.2799C0.579241 12.7119 0.916792 12.1961 1.34217 11.7621" fill="#004CFF"/>
</svg>
