<svg width="22" height="27" viewBox="0 0 22 27" fill="none" xmlns="http://www.w3.org/2000/svg">
<path d="M3.66667 11.5714V24.4286H19.5556V11.5714H3.66667ZM18.3333 9H20.7778C21.1019 9 21.4128 9.13546 21.642 9.37658C21.8712 9.6177 22 9.94472 22 10.2857V25.7143C22 26.0553 21.8712 26.3823 21.642 26.6234C21.4128 26.8645 21.1019 27 20.7778 27H1.22222C0.898069 27 0.587192 26.8645 0.357981 26.6234C0.128769 26.3823 0 26.0553 0 25.7143V10.2857C0 9.94472 0.128769 9.6177 0.357981 9.37658C0.587192 9.13546 0.898069 9 1.22222 9H3.66667V7.71429C3.66667 5.66833 4.43928 3.70617 5.81455 2.25946C7.18982 0.812753 9.05508 0 11 0C12.9449 0 14.8102 0.812753 16.1855 2.25946C17.5607 3.70617 18.3333 5.66833 18.3333 7.71429V9ZM15.8889 9V7.71429C15.8889 6.35032 15.3738 5.04221 14.457 4.07774C13.5401 3.11326 12.2966 2.57143 11 2.57143C9.70339 2.57143 8.45988 3.11326 7.54303 4.07774C6.62619 5.04221 6.11111 6.35032 6.11111 7.71429V9H15.8889ZM4.88889 12.8571H7.33333V15.4286H4.88889V12.8571ZM4.88889 16.7143H7.33333V19.2857H4.88889V16.7143ZM4.88889 20.5714H7.33333V23.1429H4.88889V20.5714Z" fill="#004CFF"/>
</svg>
