<svg width="30" height="30" viewBox="0 0 30 30" fill="none" xmlns="http://www.w3.org/2000/svg">
<path d="M20.0343 15.7413L30 21.5541L25.7456 22.7705L28.7865 28.0381L26.308 29.4691L23.267 24.2029L20.0859 27.2796L20.0343 15.7413ZM17.1723 5.7241H20.0343V8.58615H27.1895C27.569 8.58615 27.933 8.73692 28.2014 9.00529C28.4697 9.27365 28.6205 9.63764 28.6205 10.0172V15.7413H25.7584V11.4482H11.4482V25.7584H17.1723V28.6205H10.0172C9.63764 28.6205 9.27365 28.4697 9.00528 28.2014C8.73692 27.933 8.58615 27.569 8.58615 27.1895V20.0343H5.7241V17.1723H8.58615V10.0172C8.58615 9.63764 8.73692 9.27365 9.00528 9.00529C9.27365 8.73692 9.63764 8.58615 10.0172 8.58615H17.1723V5.7241ZM2.86205 17.1723V20.0343H0V17.1723H2.86205ZM2.86205 11.4482V14.3102H0V11.4482H2.86205ZM2.86205 5.7241V8.58615H0V5.7241H2.86205ZM2.86205 0V2.86205H0V0H2.86205ZM8.58615 0V2.86205H5.7241V0H8.58615ZM14.3102 0V2.86205H11.4482V0H14.3102ZM20.0343 0V2.86205H17.1723V0H20.0343Z" fill="#004CFF"/>
</svg>
