<svg width="30" height="27" viewBox="0 0 30 27" fill="none" xmlns="http://www.w3.org/2000/svg">
<path d="M3 22.5V16.95C3 16.3533 2.76295 15.781 2.34099 15.359C1.91903 14.9371 1.34674 14.7 0.75 14.7H0V12.3H0.75C1.04547 12.3 1.33806 12.2418 1.61104 12.1287C1.88402 12.0157 2.13206 11.8499 2.34099 11.641C2.54992 11.4321 2.71566 11.184 2.82873 10.911C2.9418 10.6381 3 10.3455 3 10.05V4.5C3 3.30653 3.47411 2.16193 4.31802 1.31802C5.16193 0.474106 6.30653 0 7.5 0H9V3H7.5C7.10218 3 6.72064 3.15804 6.43934 3.43934C6.15804 3.72064 6 4.10218 6 4.5V10.65C6.00016 11.2815 5.80102 11.897 5.43096 12.4087C5.0609 12.9204 4.53878 13.3023 3.939 13.5C4.53878 13.6977 5.0609 14.0796 5.43096 14.5913C5.80102 15.103 6.00016 15.7185 6 16.35V22.5C6 22.8978 6.15804 23.2794 6.43934 23.5607C6.72064 23.842 7.10218 24 7.5 24H9V27H7.5C6.30653 27 5.16193 26.5259 4.31802 25.682C3.47411 24.8381 3 23.6935 3 22.5V22.5ZM27 16.95V22.5C27 23.6935 26.5259 24.8381 25.682 25.682C24.8381 26.5259 23.6935 27 22.5 27H21V24H22.5C22.8978 24 23.2794 23.842 23.5607 23.5607C23.842 23.2794 24 22.8978 24 22.5V16.35C23.9998 15.7185 24.199 15.103 24.569 14.5913C24.9391 14.0796 25.4612 13.6977 26.061 13.5C25.4612 13.3023 24.9391 12.9204 24.569 12.4087C24.199 11.897 23.9998 11.2815 24 10.65V4.5C24 4.10218 23.842 3.72064 23.5607 3.43934C23.2794 3.15804 22.8978 3 22.5 3H21V0H22.5C23.6935 0 24.8381 0.474106 25.682 1.31802C26.5259 2.16193 27 3.30653 27 4.5V10.05C27 10.6467 27.2371 11.219 27.659 11.641C28.081 12.0629 28.6533 12.3 29.25 12.3H30V14.7H29.25C28.6533 14.7 28.081 14.9371 27.659 15.359C27.2371 15.781 27 16.3533 27 16.95V16.95Z" fill="#004CFF"/>
</svg>
